<?xml version="1.0" encoding="UTF-8"?>
<svg width="84px" height="84px" viewBox="0 0 84 84" version="1.1" xmlns="http://www.w3.org/2000/svg" xmlns:xlink="http://www.w3.org/1999/xlink">
    <!-- Generator: Sketch 52.2 (67145) - http://www.bohemiancoding.com/sketch -->
    <title>icon--clear-selection</title>
    <desc>Created with Sketch.</desc>
    <defs>
        <polygon id="path-1" points="0 0 84 0 84 84 0 84"></polygon>
    </defs>
    <g id="icon--clear-selection" stroke="none" stroke-width="1" fill="none" fill-rule="evenodd">
        <mask id="mask-2" fill="white">
            <use xlink:href="#path-1"></use>
        </mask>
        <g id="Clip-2"></g>
        <path d="M42,39.8786797 L66.9393398,14.9393398 C67.5251263,14.3535534 68.4748737,14.3535534 69.0606602,14.9393398 C69.6464466,15.5251263 69.6464466,16.4748737 69.0606602,17.0606602 L44.1213203,42 L69.0606602,66.9393398 C69.6464466,67.5251263 69.6464466,68.4748737 69.0606602,69.0606602 C68.4748737,69.6464466 67.5251263,69.6464466 66.9393398,69.0606602 L42,44.1213203 L17.0606602,69.0606602 C16.4748737,69.6464466 15.5251263,69.6464466 14.9393398,69.0606602 C14.3535534,68.4748737 14.3535534,67.5251263 14.9393398,66.9393398 L39.8786797,42 L14.9393398,17.0606602 C14.3535534,16.4748737 14.3535534,15.5251263 14.9393398,14.9393398 C15.5251263,14.3535534 16.4748737,14.3535534 17.0606602,14.9393398 L42,39.8786797 Z" id="Combined-Shape" fill="#000000" fill-rule="nonzero" mask="url(#mask-2)"></path>
        <path d="M23.4630345,2.89655172 L16.5489655,2.89655172 C15.7495172,2.89655172 15.1006897,2.24868966 15.1006897,1.44827586 C15.1006897,0.647862069 15.7495172,0 16.5489655,0 L23.4630345,0 C24.2634483,0 24.9113103,0.647862069 24.9113103,1.44827586 C24.9113103,2.24868966 24.2634483,2.89655172 23.4630345,2.89655172 M38.277931,2.89655172 L31.3648276,2.89655172 C30.5644138,2.89655172 29.9165517,2.24868966 29.9165517,1.44827586 C29.9165517,0.647862069 30.5644138,0 31.3648276,0 L38.277931,0 C39.0773793,0 39.7262069,0.647862069 39.7262069,1.44827586 C39.7262069,2.24868966 39.0773793,2.89655172 38.277931,2.89655172 M53.0928276,2.89655172 L46.1787586,2.89655172 C45.3793103,2.89655172 44.7304828,2.24868966 44.7304828,1.44827586 C44.7304828,0.647862069 45.3793103,0 46.1787586,0 L53.0928276,0 C53.8932414,0 54.5411034,0.647862069 54.5411034,1.44827586 C54.5411034,2.24868966 53.8932414,2.89655172 53.0928276,2.89655172 M67.9077241,2.89655172 L60.9946207,2.89655172 C60.1942069,2.89655172 59.5463448,2.24868966 59.5463448,1.44827586 C59.5463448,0.647862069 60.1942069,0 60.9946207,0 L67.9077241,0 C68.7071724,0 69.356,0.647862069 69.356,1.44827586 C69.356,2.24868966 68.7071724,2.89655172 67.9077241,2.89655172 M2.83089655,6.20634483 C2.54510345,6.20634483 2.25641379,6.12234483 2.00441379,5.94662069 C1.34786207,5.48896552 1.18758621,4.5862069 1.64427586,3.92965517 C3.24703448,1.63172414 5.76413793,0.207586207 8.55158621,0.0202758621 C9.3462069,-0.0376551724 10.0404138,0.569655172 10.0935172,1.36813793 C10.1475862,2.16662069 9.54413793,2.856 8.74565517,2.91006897 C6.83972414,3.03848276 5.1182069,4.01365517 4.02041379,5.58648276 C3.73848276,5.99103448 3.28855172,6.20634483 2.83089655,6.20634483 M81.4182069,6.58868966 C80.9306207,6.58868966 80.4555862,6.34344828 80.1823448,5.89737931 C79.1791724,4.2617931 77.5175172,3.1862069 75.6241379,2.94675862 C74.8304828,2.84634483 74.2685517,2.12124138 74.3689655,1.32758621 C74.4693793,0.533931034 75.2022069,-0.024137931 75.9871724,0.0724137931 C78.7582069,0.422896552 81.1864828,1.9937931 82.6511724,4.38344828 C83.0692414,5.06606897 82.8558621,5.95724138 82.1742069,6.37531034 C81.9376552,6.52013793 81.676,6.58868966 81.4182069,6.58868966 M1.44827586,20.7354483 C0.647862069,20.7354483 0,20.0875862 0,19.2871724 L0,12.3731034 C0,11.5736552 0.647862069,10.9248276 1.44827586,10.9248276 C2.24772414,10.9248276 2.89655172,11.5736552 2.89655172,12.3731034 L2.89655172,19.2871724 C2.89655172,20.0875862 2.24772414,20.7354483 1.44827586,20.7354483 M82.5517241,21.1931034 C81.7513103,21.1931034 81.1034483,20.5442759 81.1034483,19.7448276 L81.1034483,12.8307586 C81.1034483,12.0303448 81.7513103,11.3824828 82.5517241,11.3824828 C83.3511724,11.3824828 84,12.0303448 84,12.8307586 L84,19.7448276 C84,20.5442759 83.3511724,21.1931034 82.5517241,21.1931034 M1.44827586,35.5503448 C0.647862069,35.5503448 0,34.9024828 0,34.102069 L0,27.1889655 C0,26.3885517 0.647862069,25.7406897 1.44827586,25.7406897 C2.24772414,25.7406897 2.89655172,26.3885517 2.89655172,27.1889655 L2.89655172,34.102069 C2.89655172,34.9024828 2.24772414,35.5503448 1.44827586,35.5503448 M82.5517241,36.0070345 C81.7513103,36.0070345 81.1034483,35.3591724 81.1034483,34.5587586 L81.1034483,27.6456552 C81.1034483,26.8452414 81.7513103,26.1973793 82.5517241,26.1973793 C83.3511724,26.1973793 84,26.8452414 84,27.6456552 L84,34.5587586 C84,35.3591724 83.3511724,36.0070345 82.5517241,36.0070345 M1.44827586,50.3652414 C0.647862069,50.3652414 0,49.7173793 0,48.9169655 L0,42.0028966 C0,41.2034483 0.647862069,40.5546207 1.44827586,40.5546207 C2.24772414,40.5546207 2.89655172,41.2034483 2.89655172,42.0028966 L2.89655172,48.9169655 C2.89655172,49.7173793 2.24772414,50.3652414 1.44827586,50.3652414 M82.5517241,50.8228966 C81.7513103,50.8228966 81.1034483,50.174069 81.1034483,49.3746207 L81.1034483,42.4605517 C81.1034483,41.6601379 81.7513103,41.0122759 82.5517241,41.0122759 C83.3511724,41.0122759 84,41.6601379 84,42.4605517 L84,49.3746207 C84,50.174069 83.3511724,50.8228966 82.5517241,50.8228966 M1.44827586,65.1801379 C0.647862069,65.1801379 0,64.5322759 0,63.7318621 L0,56.8187586 C0,56.0183448 0.647862069,55.3704828 1.44827586,55.3704828 C2.24772414,55.3704828 2.89655172,56.0183448 2.89655172,56.8187586 L2.89655172,63.7318621 C2.89655172,64.5322759 2.24772414,65.1801379 1.44827586,65.1801379 M82.5517241,65.6368276 C81.7513103,65.6368276 81.1034483,64.9889655 81.1034483,64.1885517 L81.1034483,57.2754483 C81.1034483,56.4750345 81.7513103,55.8271724 82.5517241,55.8271724 C83.3511724,55.8271724 84,56.4750345 84,57.2754483 L84,64.1885517 C84,64.9889655 83.3511724,65.6368276 82.5517241,65.6368276 M2.32496552,79.8531034 C1.80358621,79.8531034 1.29958621,79.5702069 1.04082759,79.0748966 C0.360137931,77.7743448 0,76.3048276 0,74.8275862 L0,71.6326897 C0,70.8332414 0.647862069,70.1844138 1.44827586,70.1844138 C2.24772414,70.1844138 2.89655172,70.8332414 2.89655172,71.6326897 L2.89655172,74.8275862 C2.89655172,75.853931 3.13503448,76.8310345 3.60717241,77.7328276 C3.97793103,78.4415172 3.70468966,79.3162759 2.99503448,79.6870345 C2.78165517,79.7990345 2.55186207,79.8531034 2.32496552,79.8531034 M81.450069,80.2508966 C81.1961379,80.2508966 80.9383448,80.1842759 80.7056552,80.0442759 C80.0201379,79.632 79.798069,78.7417931 80.2103448,78.0562759 C80.7944828,77.0849655 81.1034483,75.9688276 81.1034483,74.8275862 L81.1034483,72.0903448 C81.1034483,71.289931 81.7513103,70.642069 82.5517241,70.642069 C83.3511724,70.642069 84,71.289931 84,72.0903448 L84,74.8275862 C84,76.4950345 83.5471724,78.1267586 82.6926897,79.5489655 C82.4204138,80.0008276 81.9415172,80.2508966 81.450069,80.2508966 M15.568,84 L9.17241379,84 C8.96482759,84 8.75917241,83.9932414 8.55544828,83.9797241 C7.75696552,83.9237241 7.15448276,83.2324138 7.21048276,82.433931 C7.26551724,81.6364138 7.95682759,81.0348966 8.75531034,81.0889655 C8.89241379,81.0986207 9.03144828,81.1034483 9.17241379,81.1034483 L15.568,81.1034483 C16.3674483,81.1034483 17.0162759,81.7513103 17.0162759,82.5517241 C17.0162759,83.3521379 16.3674483,84 15.568,84 M30.3828966,84 L23.4688276,84 C22.6693793,84 22.0205517,83.3521379 22.0205517,82.5517241 C22.0205517,81.7513103 22.6693793,81.1034483 23.4688276,81.1034483 L30.3828966,81.1034483 C31.1833103,81.1034483 31.8311724,81.7513103 31.8311724,82.5517241 C31.8311724,83.3521379 31.1833103,84 30.3828966,84 M45.1977931,84 L38.2837241,84 C37.4833103,84 36.8354483,83.3521379 36.8354483,82.5517241 C36.8354483,81.7513103 37.4833103,81.1034483 38.2837241,81.1034483 L45.1977931,81.1034483 C45.9972414,81.1034483 46.646069,81.7513103 46.646069,82.5517241 C46.646069,83.3521379 45.9972414,84 45.1977931,84 M60.0126897,84 L53.0986207,84 C52.2991724,84 51.6503448,83.3521379 51.6503448,82.5517241 C51.6503448,81.7513103 52.2991724,81.1034483 53.0986207,81.1034483 L60.0126897,81.1034483 C60.8131034,81.1034483 61.4609655,81.7513103 61.4609655,82.5517241 C61.4609655,83.3521379 60.8131034,84 60.0126897,84 M74.8874483,84 L67.9135172,84 C67.1131034,84 66.4652414,83.3521379 66.4652414,82.5517241 C66.4652414,81.7513103 67.1131034,81.1034483 67.9135172,81.1034483 L74.8275862,81.1034483 C75.6270345,81.1034483 76.3048276,81.7513103 76.3048276,82.5517241 C76.3048276,83.3521379 75.6868966,84 74.8874483,84" id="Fill-1" fill="#000000" mask="url(#mask-2)"></path>
    </g>
</svg>