<?xml version="1.0" encoding="UTF-8"?>
<svg width="84px" height="84px" viewBox="0 0 84 84" version="1.1" xmlns="http://www.w3.org/2000/svg" xmlns:xlink="http://www.w3.org/1999/xlink">
    <!-- Generator: Sketch 52.2 (67145) - http://www.bohemiancoding.com/sketch -->
    <title>icon--clear-all</title>
    <desc>Created with Sketch.</desc>
    <g id="icon--clear-all" stroke="none" stroke-width="1" fill="none" fill-rule="evenodd">
        <path d="M42,39.8786797 L66.9393398,14.9393398 C67.5251263,14.3535534 68.4748737,14.3535534 69.0606602,14.9393398 C69.6464466,15.5251263 69.6464466,16.4748737 69.0606602,17.0606602 L44.1213203,42 L69.0606602,66.9393398 C69.6464466,67.5251263 69.6464466,68.4748737 69.0606602,69.0606602 C68.4748737,69.6464466 67.5251263,69.6464466 66.9393398,69.0606602 L42,44.1213203 L17.0606602,69.0606602 C16.4748737,69.6464466 15.5251263,69.6464466 14.9393398,69.0606602 C14.3535534,68.4748737 14.3535534,67.5251263 14.9393398,66.9393398 L39.8786797,42 L14.9393398,17.0606602 C14.3535534,16.4748737 14.3535534,15.5251263 14.9393398,14.9393398 C15.5251263,14.3535534 16.4748737,14.3535534 17.0606602,14.9393398 L42,39.8786797 Z" id="Combined-Shape" fill="#000000" fill-rule="nonzero"></path>
    </g>
</svg>