<?xml version="1.0" encoding="UTF-8"?>
<svg width="84px" height="84px" viewBox="0 0 84 84" version="1.1" xmlns="http://www.w3.org/2000/svg" xmlns:xlink="http://www.w3.org/1999/xlink">
    <!-- Generator: Sketch 52.2 (67145) - http://www.bohemiancoding.com/sketch -->
    <title>icon--visible</title>
    <desc>Created with Sketch.</desc>
    <g id="icon--visible" stroke="none" stroke-width="1" fill="none" fill-rule="evenodd">
        <path d="M41.9991929,53.2005534 C48.0620477,53.2005534 52.9993906,48.2632105 52.9993906,42.2003558 C52.9993906,36.137501 48.0620477,31.2001581 41.9991929,31.2001581 C35.9363382,31.2001581 30.9989953,36.137501 30.9989953,42.2003558 C30.9989953,48.2632105 35.9363382,53.2005534 41.9991929,53.2005534 Z M41.9991929,56.2005534 C34.2794839,56.2005534 27.9989953,49.9200648 27.9989953,42.2003558 C27.9989953,34.4806468 34.2794839,28.2001581 41.9991929,28.2001581 C49.7189019,28.2001581 55.9993906,34.4806468 55.9993906,42.2003558 C55.9993906,49.9200648 49.7189019,56.2005534 41.9991929,56.2005534 Z" id="Path" fill="#000000" fill-rule="nonzero"></path>
        <path d="M80.5779599,42.1117495 C80.5230048,42.037056 80.4655505,41.959454 80.4056061,41.8790165 C79.7768735,41.0353396 79.0434967,40.1098967 78.2088965,39.1251938 C75.8811045,36.3787491 73.186789,33.6595307 70.1564933,31.1463443 C61.7132685,24.1439261 52.2636874,20 41.9991929,20 C33.3111313,20 24.1750934,24.1421138 15.2080352,31.1498547 C11.9698621,33.6804816 8.97214608,36.4196711 6.28451862,39.1878456 C5.31921163,40.1820824 4.45548181,41.1174541 3.70166975,41.9714443 C3.63199468,42.0503788 3.56492869,42.1267089 3.50050573,42.2003556 C3.56493146,42.2740058 3.63199612,42.3503343 3.70166975,42.4292673 C4.45548181,43.2832574 5.31921163,44.2186291 6.28451862,45.2128659 C8.97214608,47.9810405 11.9698621,50.72023 15.2080352,53.2508568 C24.1750934,60.2585977 33.3111313,64.4007115 41.9991929,64.4007115 C50.6872996,64.4007115 59.8239205,60.2585573 68.791856,53.2507745 C72.0303532,50.7201268 75.0284153,47.9809114 77.7163512,45.2127409 C78.6817844,44.2184897 79.5456311,43.2831027 80.2995125,42.4291352 C80.3975225,42.3181132 80.490384,42.2122276 80.5779599,42.1117495 Z M83.7645826,41.4219448 C84.1061874,41.934352 84.0725869,42.6091615 83.6861815,43.0851683 C82.87697,44.0763823 63.5986979,67.4007115 41.9991929,67.4007115 C20.399688,67.4007115 1.12421587,44.0763823 0.315004447,43.0851683 C-0.105001482,42.569961 -0.105001482,41.8307506 0.315004447,41.3155433 C1.12421587,40.3243293 20.399688,17 41.9991929,17 C67.1715483,17 83.0981732,40.4251307 83.7645826,41.4219448 Z" id="Path" fill="#000000" fill-rule="nonzero"></path>
    </g>
</svg>