<?xml version="1.0" encoding="UTF-8"?>
<svg width="84px" height="84px" viewBox="0 0 84 84" version="1.1" xmlns="http://www.w3.org/2000/svg" xmlns:xlink="http://www.w3.org/1999/xlink">
    <!-- Generator: Sketch 52.2 (67145) - http://www.bohemiancoding.com/sketch -->
    <title>icon--keyboard</title>
    <desc>Created with Sketch.</desc>
    <g id="icon--keyboard" stroke="none" stroke-width="1" fill="none" fill-rule="evenodd">
        <path d="M8.86344828,16.8965517 C5.56137931,16.8965517 2.89655172,19.5613793 2.89655172,22.8634483 L2.89655172,60.1710345 C2.89655172,63.4441379 5.56137931,66.137931 8.86344828,66.137931 L75.1365517,66.137931 C78.4386207,66.137931 81.1034483,63.4441379 81.1034483,60.1710345 L81.1034483,22.8634483 C81.1034483,19.5613793 78.4386207,16.8965517 75.1365517,16.8965517 L8.86344828,16.8965517 Z M75.1365517,69.0344828 L8.86344828,69.0344828 C3.96827586,69.0344828 0,65.0372414 0,60.1710345 L0,22.8634483 C0,17.9682759 3.96827586,14 8.86344828,14 L75.1365517,14 C80.0317241,14 84,17.9682759 84,22.8634483 L84,60.1710345 C84,65.0372414 80.0317241,69.0344828 75.1365517,69.0344828 L75.1365517,69.0344828 Z" id="Fill-5554" fill="#0A0B09"></path>
        <path d="M11.8965517,31.6896552 L17.6896552,31.6896552 L17.6896552,25.8965517 L11.8965517,25.8965517 L11.8965517,31.6896552 Z M19.137931,34.5862069 L10.4482759,34.5862069 C9.63724138,34.5862069 9,33.92 9,33.137931 L9,24.4482759 C9,23.6372414 9.63724138,23 10.4482759,23 L19.137931,23 C19.9489655,23 20.5862069,23.6372414 20.5862069,24.4482759 L20.5862069,33.137931 C20.5862069,33.92 19.9489655,34.5862069 19.137931,34.5862069 L19.137931,34.5862069 Z" id="Fill-5555" fill="#0A0B09"></path>
        <path d="M25.8965517,31.6896552 L31.6896552,31.6896552 L31.6896552,25.8965517 L25.8965517,25.8965517 L25.8965517,31.6896552 Z M33.137931,34.5862069 L24.4482759,34.5862069 C23.6372414,34.5862069 23,33.92 23,33.137931 L23,24.4482759 C23,23.6372414 23.6372414,23 24.4482759,23 L33.137931,23 C33.9489655,23 34.5862069,23.6372414 34.5862069,24.4482759 L34.5862069,33.137931 C34.5862069,33.92 33.9489655,34.5862069 33.137931,34.5862069 L33.137931,34.5862069 Z" id="Fill-5556" fill="#0A0B09"></path>
        <path d="M40.8965517,31.6896552 L46.6896552,31.6896552 L46.6896552,25.8965517 L40.8965517,25.8965517 L40.8965517,31.6896552 Z M48.137931,34.5862069 L39.4482759,34.5862069 C38.6372414,34.5862069 38,33.92 38,33.137931 L38,24.4482759 C38,23.6372414 38.6372414,23 39.4482759,23 L48.137931,23 C48.9489655,23 49.5862069,23.6372414 49.5862069,24.4482759 L49.5862069,33.137931 C49.5862069,33.92 48.9489655,34.5862069 48.137931,34.5862069 L48.137931,34.5862069 Z" id="Fill-5557" fill="#0A0B09"></path>
        <path d="M54.8965517,31.6896552 L60.6896552,31.6896552 L60.6896552,25.8965517 L54.8965517,25.8965517 L54.8965517,31.6896552 Z M62.137931,34.5862069 L53.4482759,34.5862069 C52.6372414,34.5862069 52,33.92 52,33.137931 L52,24.4482759 C52,23.6372414 52.6372414,23 53.4482759,23 L62.137931,23 C62.9489655,23 63.5862069,23.6372414 63.5862069,24.4482759 L63.5862069,33.137931 C63.5862069,33.92 62.9489655,34.5862069 62.137931,34.5862069 L62.137931,34.5862069 Z" id="Fill-5558" fill="#0A0B09"></path>
        <path d="M69.8965517,31.6896552 L75.6896552,31.6896552 L75.6896552,25.8965517 L69.8965517,25.8965517 L69.8965517,31.6896552 Z M77.137931,34.5862069 L68.4482759,34.5862069 C67.6372414,34.5862069 67,33.92 67,33.137931 L67,24.4482759 C67,23.6372414 67.6372414,23 68.4482759,23 L77.137931,23 C77.9489655,23 78.5862069,23.6372414 78.5862069,24.4482759 L78.5862069,33.137931 C78.5862069,33.92 77.9489655,34.5862069 77.137931,34.5862069 L77.137931,34.5862069 Z" id="Fill-5559" fill="#0A0B09"></path>
        <path d="M11.8965517,59.6896552 L17.6896552,59.6896552 L17.6896552,53.8965517 L11.8965517,53.8965517 L11.8965517,59.6896552 Z M19.137931,62.5862069 L10.4482759,62.5862069 C9.63724138,62.5862069 9,61.92 9,61.137931 L9,52.4482759 C9,51.6372414 9.63724138,51 10.4482759,51 L19.137931,51 C19.9489655,51 20.5862069,51.6372414 20.5862069,52.4482759 L20.5862069,61.137931 C20.5862069,61.92 19.9489655,62.5862069 19.137931,62.5862069 L19.137931,62.5862069 Z" id="Fill-5560" fill="#0A0B09"></path>
        <path d="M25.8965517,59.6896552 L57.7586207,59.6896552 L57.7586207,53.8965517 L25.8965517,53.8965517 L25.8965517,59.6896552 Z M59.2068966,62.5862069 L24.4482759,62.5862069 C23.6372414,62.5862069 23,61.92 23,61.137931 L23,52.4482759 C23,51.6372414 23.6372414,51 24.4482759,51 L59.2068966,51 C60.017931,51 60.6551724,51.6372414 60.6551724,52.4482759 L60.6551724,61.137931 C60.6551724,61.92 60.017931,62.5862069 59.2068966,62.5862069 L59.2068966,62.5862069 Z" id="Fill-5561" fill="#0A0B09"></path>
        <path d="M66.8965517,59.6896552 L72.6896552,59.6896552 L72.6896552,53.8965517 L66.8965517,53.8965517 L66.8965517,59.6896552 Z M74.137931,62.5862069 L65.4482759,62.5862069 C64.6372414,62.5862069 64,61.92 64,61.137931 L64,52.4482759 C64,51.6372414 64.6372414,51 65.4482759,51 L74.137931,51 C74.9489655,51 75.5862069,51.6372414 75.5862069,52.4482759 L75.5862069,61.137931 C75.5862069,61.92 74.9489655,62.5862069 74.137931,62.5862069 L74.137931,62.5862069 Z" id="Fill-5562" fill="#0A0B09"></path>
        <path d="M16.8965517,45.6896552 L22.6896552,45.6896552 L22.6896552,39.8965517 L16.8965517,39.8965517 L16.8965517,45.6896552 Z M24.137931,48.5862069 L15.4482759,48.5862069 C14.6372414,48.5862069 14,47.92 14,47.137931 L14,38.4482759 C14,37.6372414 14.6372414,37 15.4482759,37 L24.137931,37 C24.9489655,37 25.5862069,37.6372414 25.5862069,38.4482759 L25.5862069,47.137931 C25.5862069,47.92 24.9489655,48.5862069 24.137931,48.5862069 L24.137931,48.5862069 Z" id="Fill-5563" fill="#0A0B09"></path>
        <path d="M31.8965517,45.6896552 L37.6896552,45.6896552 L37.6896552,39.8965517 L31.8965517,39.8965517 L31.8965517,45.6896552 Z M39.137931,48.5862069 L30.4482759,48.5862069 C29.6372414,48.5862069 29,47.92 29,47.137931 L29,38.4482759 C29,37.6372414 29.6372414,37 30.4482759,37 L39.137931,37 C39.9489655,37 40.5862069,37.6372414 40.5862069,38.4482759 L40.5862069,47.137931 C40.5862069,47.92 39.9489655,48.5862069 39.137931,48.5862069 L39.137931,48.5862069 Z" id="Fill-5564" fill="#0A0B09"></path>
        <path d="M45.8965517,45.6896552 L51.6896552,45.6896552 L51.6896552,39.8965517 L45.8965517,39.8965517 L45.8965517,45.6896552 Z M53.137931,48.5862069 L44.4482759,48.5862069 C43.6372414,48.5862069 43,47.92 43,47.137931 L43,38.4482759 C43,37.6372414 43.6372414,37 44.4482759,37 L53.137931,37 C53.9489655,37 54.5862069,37.6372414 54.5862069,38.4482759 L54.5862069,47.137931 C54.5862069,47.92 53.9489655,48.5862069 53.137931,48.5862069 L53.137931,48.5862069 Z" id="Fill-5565" fill="#0A0B09"></path>
        <path d="M60.8965517,45.6896552 L66.6896552,45.6896552 L66.6896552,39.8965517 L60.8965517,39.8965517 L60.8965517,45.6896552 Z M68.137931,48.5862069 L59.4482759,48.5862069 C58.6372414,48.5862069 58,47.92 58,47.137931 L58,38.4482759 C58,37.6372414 58.6372414,37 59.4482759,37 L68.137931,37 C68.9489655,37 69.5862069,37.6372414 69.5862069,38.4482759 L69.5862069,47.137931 C69.5862069,47.92 68.9489655,48.5862069 68.137931,48.5862069 L68.137931,48.5862069 Z" id="Fill-5566" fill="#0A0B09"></path>
    </g>
</svg>