<?xml version="1.0" encoding="UTF-8"?>
<svg width="84px" height="84px" viewBox="0 0 84 84" version="1.1" xmlns="http://www.w3.org/2000/svg" xmlns:xlink="http://www.w3.org/1999/xlink">
    <!-- Generator: Sketch 52.2 (67145) - http://www.bohemiancoding.com/sketch -->
    <title>icon--view-3d</title>
    <desc>Created with Sketch.</desc>
    <defs>
        <polygon id="path-1" points="0.0005 0.0003 83.0235 0.0003 83.0235 84 0.0005 84"></polygon>
    </defs>
    <g id="icon--view-3d" stroke="none" stroke-width="1" fill="none" fill-rule="evenodd">
        <g id="Group-32">
            <path d="M32.1449,56.4774 L29.7109,56.4774 C29.0389,56.4774 28.4939,57.0224 28.4939,57.6944 C28.4939,58.3674 29.0389,58.9124 29.7109,58.9124 L32.1449,58.9124 C32.8179,58.9124 33.3629,58.3674 33.3629,57.6944 C33.3629,57.0224 32.8179,56.4774 32.1449,56.4774" id="Fill-1" fill="#000000"></path>
            <path d="M48.6996,56.4774 L46.2646,56.4774 C45.5926,56.4774 45.0476,57.0224 45.0476,57.6944 C45.0476,58.3674 45.5926,58.9124 46.2646,58.9124 L48.6996,58.9124 C49.3716,58.9124 49.9166,58.3674 49.9166,57.6944 C49.9166,57.0224 49.3716,56.4774 48.6996,56.4774" id="Fill-3" fill="#000000"></path>
            <path d="M40.4222,56.4774 L37.9872,56.4774 C37.3162,56.4774 36.7712,57.0224 36.7712,57.6944 C36.7712,58.3674 37.3162,58.9124 37.9872,58.9124 L40.4222,58.9124 C41.0942,58.9124 41.6392,58.3674 41.6392,57.6944 C41.6392,57.0224 41.0942,56.4774 40.4222,56.4774" id="Fill-5" fill="#000000"></path>
            <path d="M65.2523,56.4774 L62.8183,56.4774 C62.1463,56.4774 61.6013,57.0224 61.6013,57.6944 C61.6013,58.3674 62.1463,58.9124 62.8183,58.9124 L65.2523,58.9124 C65.9253,58.9124 66.4703,58.3674 66.4703,57.6944 C66.4703,57.0224 65.9253,56.4774 65.2523,56.4774" id="Fill-7" fill="#000000"></path>
            <path d="M73.5297,56.4774 L71.0947,56.4774 C70.4237,56.4774 69.8787,57.0224 69.8787,57.6944 C69.8787,58.3674 70.4237,58.9124 71.0947,58.9124 L73.5297,58.9124 C74.2017,58.9124 74.7467,58.3674 74.7467,57.6944 C74.7467,57.0224 74.2017,56.4774 73.5297,56.4774" id="Fill-9" fill="#000000"></path>
            <path d="M12.9799,68.7865 L11.2929,70.5415 C10.8279,71.0265 10.8419,71.7975 11.3279,72.2635 C11.5629,72.4905 11.8679,72.6025 12.1709,72.6025 C12.4909,72.6025 12.8099,72.4775 13.0489,72.2285 L14.7359,70.4735 C15.2019,69.9885 15.1859,69.2185 14.7019,68.7525 C14.2159,68.2865 13.4449,68.3015 12.9799,68.7865" id="Fill-11" fill="#000000"></path>
            <path d="M25.3295,11.2289 C26.0015,11.2289 26.5465,10.6839 26.5465,10.0119 L26.5465,7.5779 C26.5465,6.9049 26.0015,6.3599 25.3295,6.3599 C24.6565,6.3599 24.1115,6.9049 24.1115,7.5779 L24.1115,10.0119 C24.1115,10.6839 24.6565,11.2289 25.3295,11.2289" id="Fill-13" fill="#000000"></path>
            <path d="M7.2455,74.7543 L5.5585,76.5093 C5.0925,76.9943 5.1075,77.7643 5.5925,78.2313 C5.8285,78.4573 6.1325,78.5703 6.4355,78.5703 C6.7555,78.5703 7.0745,78.4453 7.3135,78.1963 L9.0005,76.4413 C9.4665,75.9563 9.4515,75.1863 8.9665,74.7193 C8.4815,74.2543 7.7105,74.2693 7.2455,74.7543" id="Fill-15" fill="#000000"></path>
            <path d="M25.3295,19.5057 C26.0015,19.5057 26.5465,18.9607 26.5465,18.2887 L26.5465,15.8547 C26.5465,15.1817 26.0015,14.6367 25.3295,14.6367 C24.6565,14.6367 24.1115,15.1817 24.1115,15.8547 L24.1115,18.2887 C24.1115,18.9607 24.6565,19.5057 25.3295,19.5057" id="Fill-17" fill="#000000"></path>
            <path d="M18.7162,62.8192 L17.0292,64.5742 C16.5632,65.0592 16.5782,65.8292 17.0642,66.2962 C17.2992,66.5222 17.6042,66.6352 17.9062,66.6352 C18.2272,66.6352 18.5462,66.5102 18.7842,66.2612 L20.4722,64.5062 C20.9382,64.0212 20.9222,63.2512 20.4382,62.7842 C19.9522,62.3192 19.1822,62.3332 18.7162,62.8192" id="Fill-19" fill="#000000"></path>
            <path d="M25.3295,39.4677 C24.6565,39.4677 24.1115,40.0127 24.1115,40.6847 L24.1115,43.1197 C24.1115,43.7917 24.6565,44.3367 25.3295,44.3367 C26.0015,44.3367 26.5465,43.7917 26.5465,43.1197 L26.5465,40.6847 C26.5465,40.0127 26.0015,39.4677 25.3295,39.4677" id="Fill-21" fill="#000000"></path>
            <path d="M25.3295,31.1908 C24.6565,31.1908 24.1115,31.7358 24.1115,32.4078 L24.1115,34.8428 C24.1115,35.5148 24.6565,36.0598 25.3295,36.0598 C26.0015,36.0598 26.5465,35.5148 26.5465,34.8428 L26.5465,32.4078 C26.5465,31.7358 26.0015,31.1908 25.3295,31.1908" id="Fill-23" fill="#000000"></path>
            <path d="M25.3295,47.745 C24.6565,47.745 24.1115,48.29 24.1115,48.962 L24.1115,51.396 C24.1115,52.069 24.6565,52.614 25.3295,52.614 C26.0015,52.614 26.5465,52.069 26.5465,51.396 L26.5465,48.962 C26.5465,48.29 26.0015,47.745 25.3295,47.745" id="Fill-25" fill="#000000"></path>
            <path d="M25.3295,56.0219 C24.6685,56.0219 24.1315,56.5479 24.1125,57.2039 L22.7645,58.6059 C22.2985,59.0909 22.3135,59.8619 22.7985,60.3279 C23.0345,60.5549 23.3385,60.6669 23.6425,60.6669 C23.9615,60.6669 24.2805,60.5419 24.5195,60.2929 L26.2065,58.5389 C26.4245,58.3119 26.5465,58.0089 26.5465,57.6949 L26.5465,57.2389 C26.5465,56.5669 26.0015,56.0219 25.3295,56.0219" id="Fill-27" fill="#000000"></path>
            <g id="Group-31">
                <mask id="mask-2" fill="white">
                    <use xlink:href="#path-1"></use>
                </mask>
                <g id="Clip-30"></g>
                <path d="M58.9125,26.7953 L80.5895,4.2403 L80.5895,56.4773 L79.3725,56.4773 C78.6995,56.4773 78.1545,57.0223 78.1545,57.6943 C78.1545,58.2413 78.5215,58.6863 79.0175,58.8403 L58.9125,79.7593 L58.9125,26.7953 Z M2.4335,27.5223 L24.6105,27.5223 C24.8135,27.6753 25.0555,27.7833 25.3295,27.7833 C25.6035,27.7833 25.8445,27.6753 26.0475,27.5223 L56.4775,27.5223 L56.4775,56.4773 L54.5415,56.4773 C53.8695,56.4773 53.3245,57.0223 53.3245,57.6943 C53.3245,58.3673 53.8695,58.9123 54.5415,58.9123 L56.4775,58.9123 L56.4775,81.5663 L2.4335,81.5663 L2.4335,27.5223 Z M25.8475,2.4343 L78.9475,2.4343 L66.5835,15.3003 L57.1765,25.0873 L26.5465,25.0873 L26.5465,24.1313 C26.5465,23.4593 26.0015,22.9143 25.3295,22.9143 C24.6565,22.9143 24.1115,23.4593 24.1115,24.1313 L24.1115,25.0873 L4.0755,25.0873 L25.8475,2.4343 Z M83.0235,57.6943 L83.0235,1.2173 C83.0235,1.1953 83.0165,1.1763 83.0145,1.1553 C83.0115,1.0923 82.9995,1.0313 82.9865,0.9683 C82.9745,0.9113 82.9635,0.8553 82.9425,0.8013 C82.9355,0.7813 82.9345,0.7603 82.9275,0.7403 C82.9115,0.7033 82.8855,0.6753 82.8655,0.6403 C82.8375,0.5873 82.8085,0.5373 82.7725,0.4893 C82.7365,0.4413 82.6945,0.3993 82.6515,0.3573 C82.6105,0.3163 82.5705,0.2773 82.5235,0.2423 C82.4735,0.2053 82.4185,0.1763 82.3615,0.1473 C82.3265,0.1283 82.2985,0.1033 82.2615,0.0873 C82.2445,0.0813 82.2265,0.0823 82.2105,0.0763 C82.1515,0.0553 82.0915,0.0453 82.0295,0.0333 C81.9725,0.0223 81.9165,0.0103 81.8575,0.0073 C81.8405,0.0063 81.8245,0.0003 81.8075,0.0003 L25.3295,0.0003 C24.9985,0.0003 24.6805,0.1353 24.4515,0.3743 L0.3395,25.4623 C0.2425,25.5623 0.1725,25.6783 0.1165,25.8003 C0.1005,25.8353 0.0935,25.8713 0.0805,25.9073 C0.0435,26.0133 0.0205,26.1213 0.0145,26.2333 C0.0135,26.2583 0.0005,26.2793 0.0005,26.3053 L0.0005,82.7823 C0.0005,83.4553 0.5455,84.0003 1.2175,84.0003 L57.6945,84.0003 C58.0355,84.0003 58.3425,83.8583 58.5625,83.6333 C58.5655,83.6303 58.5695,83.6293 58.5725,83.6263 L82.6835,58.5383 C82.7385,58.4823 82.7675,58.4093 82.8095,58.3443 C82.8495,58.2813 82.9015,58.2273 82.9305,58.1573 C82.9905,58.0123 83.0235,57.8553 83.0235,57.6943 Z" id="Fill-29" fill="#000000" mask="url(#mask-2)"></path>
            </g>
        </g>
    </g>
</svg>