<?xml version="1.0" encoding="UTF-8"?>
<svg width="84px" height="84px" viewBox="0 0 84 84" version="1.1" xmlns="http://www.w3.org/2000/svg" xmlns:xlink="http://www.w3.org/1999/xlink">
    <!-- Generator: Sketch 52.2 (67145) - http://www.bohemiancoding.com/sketch -->
    <title>icon--view-right</title>
    <desc>Created with Sketch.</desc>
    <g id="icon--view-right" stroke="none" stroke-width="1" fill="none" fill-rule="evenodd">
        <g id="Group-27" fill="#000000">
            <path d="M31.8733655,56 L29.4595724,56 C28.7933655,56 28.2526759,56.5406897 28.2526759,57.2068966 C28.2526759,57.8731034 28.7933655,58.4137931 29.4595724,58.4137931 L31.8733655,58.4137931 C32.5395724,58.4137931 33.0802621,57.8731034 33.0802621,57.2068966 C33.0802621,56.5406897 32.5395724,56 31.8733655,56" id="Fill-1"></path>
            <path d="M40.0802621,56 L37.666469,56 C37.0002621,56 36.4595724,56.5406897 36.4595724,57.2068966 C36.4595724,57.8731034 37.0002621,58.4137931 37.666469,58.4137931 L40.0802621,58.4137931 C40.746469,58.4137931 41.2871586,57.8731034 41.2871586,57.2068966 C41.2871586,56.5406897 40.746469,56 40.0802621,56" id="Fill-3"></path>
            <path d="M48.2871586,56 L45.8733655,56 C45.2071586,56 44.666469,56.5406897 44.666469,57.2068966 C44.666469,57.8731034 45.2071586,58.4137931 45.8733655,58.4137931 L48.2871586,58.4137931 C48.9533655,58.4137931 49.4940552,57.8731034 49.4940552,57.2068966 C49.4940552,56.5406897 48.9533655,56 48.2871586,56" id="Fill-5"></path>
            <path d="M7.18383448,74.1218897 L5.51155862,75.8627172 C5.04907586,76.3435448 5.06452414,77.107269 5.54535172,77.5687862 C5.7790069,77.7937517 6.08024828,77.9057517 6.38148966,77.9057517 C6.69817931,77.9057517 7.01486897,77.7821655 7.25142069,77.5349931 L8.92466207,75.7941655 C9.38617931,75.3133379 9.37169655,74.5496138 8.89086897,74.0880966 C8.41004138,73.6256138 7.64438621,73.6410621 7.18383448,74.1218897" id="Fill-7"></path>
            <path d="M12.8704414,68.2048138 L11.1981655,69.9456414 C10.7356828,70.426469 10.751131,71.1901931 11.2319586,71.6517103 C11.4656138,71.8766759 11.7668552,71.9886759 12.0680966,71.9886759 C12.3847862,71.9886759 12.7014759,71.8650897 12.9380276,71.6179172 L14.611269,69.8770897 C15.0727862,69.3962621 15.0583034,68.6325379 14.5774759,68.1710207 C14.0966483,67.7085379 13.3319586,67.7239862 12.8704414,68.2048138" id="Fill-9"></path>
            <path d="M18.5579172,62.2876414 L16.8856414,64.028469 C16.4231586,64.5092966 16.4386069,65.2730207 16.9194345,65.7345379 C17.1530897,65.9595034 17.454331,66.0715034 17.7555724,66.0715034 C18.0722621,66.0715034 18.3889517,65.9479172 18.6255034,65.7007448 L20.2987448,63.9599172 C20.7602621,63.4790897 20.7457793,62.7153655 20.2649517,62.2538483 C19.7850897,61.7913655 19.0194345,61.8058483 18.5579172,62.2876414" id="Fill-11"></path>
            <path d="M25.1147448,19.3410483 C25.7809517,19.3410483 26.3216414,18.8003586 26.3216414,18.1341517 L26.3216414,15.7203586 C26.3216414,15.0541517 25.7809517,14.5134621 25.1147448,14.5134621 C24.4485379,14.5134621 23.9078483,15.0541517 23.9078483,15.7203586 L23.9078483,18.1341517 C23.9078483,18.8003586 24.4485379,19.3410483 25.1147448,19.3410483" id="Fill-13"></path>
            <path d="M25.1147448,11.1341517 C25.7809517,11.1341517 26.3216414,10.5934621 26.3216414,9.92725517 L26.3216414,7.51346207 C26.3216414,6.84725517 25.7809517,6.30656552 25.1147448,6.30656552 C24.4485379,6.30656552 23.9078483,6.84725517 23.9078483,7.51346207 L23.9078483,9.92725517 C23.9078483,10.5934621 24.4485379,11.1341517 25.1147448,11.1341517" id="Fill-15"></path>
            <path d="M25.1147448,39.1341517 C24.4485379,39.1341517 23.9078483,39.6748414 23.9078483,40.3410483 L23.9078483,42.7548414 C23.9078483,43.4210483 24.4485379,43.9617379 25.1147448,43.9617379 C25.7809517,43.9617379 26.3216414,43.4210483 26.3216414,42.7548414 L26.3216414,40.3410483 C26.3216414,39.6748414 25.7809517,39.1341517 25.1147448,39.1341517" id="Fill-17"></path>
            <path d="M25.1147448,30.9272552 C24.4485379,30.9272552 23.9078483,31.4679448 23.9078483,32.1341517 L23.9078483,34.5479448 C23.9078483,35.2141517 24.4485379,35.7548414 25.1147448,35.7548414 C25.7809517,35.7548414 26.3216414,35.2141517 26.3216414,34.5479448 L26.3216414,32.1341517 C26.3216414,31.4679448 25.7809517,30.9272552 25.1147448,30.9272552" id="Fill-19"></path>
            <path d="M25.1147448,55.5479448 C24.4591586,55.5479448 23.9271586,56.0702897 23.9088138,56.7200828 L22.5715724,58.1104276 C22.1100552,58.5912552 22.1245379,59.3549793 22.6053655,59.8174621 C22.8399862,60.0424276 23.1412276,60.1544276 23.442469,60.1544276 C23.7591586,60.1544276 24.0758483,60.0298759 24.3124,59.783669 L25.9846759,58.0428414 C26.2009517,57.8188414 26.3216414,57.5185655 26.3216414,57.2067034 L26.3216414,56.7548414 C26.3216414,56.0886345 25.7809517,55.5479448 25.1147448,55.5479448" id="Fill-21"></path>
            <path d="M25.1147448,47.3410483 C24.4485379,47.3410483 23.9078483,47.8817379 23.9078483,48.5479448 L23.9078483,50.9617379 C23.9078483,51.6279448 24.4485379,52.1686345 25.1147448,52.1686345 C25.7809517,52.1686345 26.3216414,51.6279448 26.3216414,50.9617379 L26.3216414,48.5479448 C26.3216414,47.8817379 25.7809517,47.3410483 25.1147448,47.3410483" id="Fill-23"></path>
            <path d="M2.4137931,27.2895724 L24.4015172,27.2895724 C24.6042759,27.4411586 24.8427586,27.548331 25.1150345,27.548331 C25.3863448,27.548331 25.6248276,27.4411586 25.8275862,27.2895724 L56,27.2895724 L56,56.0001931 L54.0805517,56.0001931 C53.4133793,56.0001931 52.8736552,56.5399172 52.8736552,57.2070897 C52.8736552,57.8732966 53.4133793,58.4139862 54.0805517,58.4139862 L56,58.4139862 L56,80.8757793 L2.4137931,80.8757793 L2.4137931,27.2895724 Z M25.6286897,2.41398621 L78.2802759,2.41398621 L67.0686897,14.0793655 L56.6932414,24.8757793 L26.321931,24.8757793 L26.321931,23.9276414 C26.321931,23.260469 25.7812414,22.7207448 25.1150345,22.7207448 C24.4478621,22.7207448 23.9081379,23.260469 23.9081379,23.9276414 L23.9081379,24.8757793 L4.04165517,24.8757793 L25.6286897,2.41398621 Z M82.3122759,1.14529655 C82.3093793,1.08253793 82.2968276,1.02171034 82.2852414,0.959917241 C82.2726897,0.903917241 82.2611034,0.847917241 82.2417931,0.794813793 C82.234069,0.774537931 82.234069,0.754262069 82.2253793,0.733986207 C82.209931,0.697296552 82.1838621,0.669296552 82.1655172,0.635503448 C82.1365517,0.583365517 82.1085517,0.532193103 82.0728276,0.484882759 C82.0371034,0.436606897 81.9955862,0.396055172 81.9531034,0.354537931 C81.9125517,0.313986207 81.872,0.275365517 81.8256552,0.240606897 C81.7744828,0.202951724 81.7213793,0.174951724 81.6644138,0.145986207 C81.6306207,0.127641379 81.6026207,0.101572414 81.565931,0.0870896552 C81.5495172,0.0803310345 81.5311724,0.0812965517 81.5147586,0.0755034483 C81.4568276,0.054262069 81.397931,0.0446068966 81.3361379,0.0330206897 C81.2791724,0.0224 81.2231724,0.00984827586 81.1652414,0.00791724138 C81.1478621,0.00695172414 81.1314483,0.000193103448 81.1150345,0.000193103448 L25.1150345,0.000193103448 C24.7867586,0.000193103448 24.472,0.1344 24.2441379,0.370951724 L0.336965517,25.2465379 C0.24137931,25.3459862 0.170896552,25.4608828 0.114896552,25.5825379 C0.100413793,25.616331 0.0926896552,25.6520552 0.080137931,25.6877793 C0.0424827586,25.7930207 0.0202758621,25.9011586 0.0144827586,26.0121931 C0.0135172414,26.036331 0,26.0575724 0,26.0826759 L0,82.0826759 C0,82.7488828 0.540689655,83.2895724 1.20689655,83.2895724 L57.2068966,83.2895724 C57.5448276,83.2895724 57.848,83.1495724 58.0671724,82.9255724 C58.0710345,82.9226759 58.073931,82.9217103 58.0768276,82.9188138 L81.9849655,58.0432276 C82.2012414,57.8182621 82.321931,57.5189517 82.321931,57.2070897 L82.321931,1.20708966 C82.321931,1.18584828 82.3132414,1.16653793 82.3122759,1.14529655 Z" id="Fill-25"></path>
        </g>
    </g>
</svg>