<?xml version="1.0" encoding="UTF-8"?>
<svg width="84px" height="84px" viewBox="0 0 84 84" version="1.1" xmlns="http://www.w3.org/2000/svg" xmlns:xlink="http://www.w3.org/1999/xlink">
    <!-- Generator: Sketch 52.2 (67145) - http://www.bohemiancoding.com/sketch -->
    <title>icon--settings</title>
    <desc>Created with Sketch.</desc>
    <g id="icon--settings" stroke="none" stroke-width="1" fill="none" fill-rule="evenodd">
        <g id="Group" transform="translate(0.000000, 2.000000)" fill="#000000">
            <path d="M11.0871639,47.7519225 C13.5895504,47.7519225 15.9700044,49.2206544 17.0646253,51.6593034 C17.8322455,53.3774426 18.7716797,55.0124459 19.8607582,56.5366016 C21.9197539,59.3909295 21.4791344,63.1874627 18.8409595,65.3767045 C17.9818899,66.0695025 17.4969313,67.1225555 17.521872,68.2310324 C17.5440416,69.3949331 18.0871952,70.4479861 19.0127734,71.1407841 C21.5872109,73.1083305 24.3971997,74.7156219 27.37346,75.9903703 C28.4514538,76.4337611 29.6569224,76.3783372 30.6656363,75.8240988 C31.6383247,75.2698604 32.3034108,74.355367 32.4863095,73.2468901 C33.0460903,69.8660357 36.0777745,67.5659463 39.6581547,67.9539132 C41.4815992,68.1478966 43.3798658,68.1478966 45.2088526,67.9539132 C48.7421225,67.5936582 51.8153746,69.8660357 52.3779266,73.2468901 C52.5608253,74.355367 53.2259114,75.2698604 54.1985998,75.8240988 C55.2045426,76.3783372 56.4100112,76.4337611 57.4907761,75.9903703 C60.4670364,74.7156219 63.2770253,73.1083305 65.8514627,71.1407841 C66.7770409,70.4479861 67.3201946,69.3949331 67.3451353,68.2310324 C67.3673048,67.1225555 66.8851174,66.0695025 66.0260479,65.3767045 C63.3851018,63.1874627 62.9444822,59.3909295 65.003478,56.5366016 C66.0925565,55.0124459 67.0319906,53.3774426 67.7996108,51.6593034 C69.21569,48.5001444 72.7905278,46.9482768 75.9496869,48.1398894 L75.9829412,48.1398894 C77.0359942,48.5278563 78.1804965,48.4170086 79.1337866,47.8627702 C80.120331,47.253108 80.7660188,46.2554788 80.9156632,45.11929 C81.1235026,43.5119986 81.2288079,41.8769952 81.2288079,40.2697038 C81.2288079,38.6347004 81.1235026,36.9996971 80.9156632,35.3924056 C80.7660188,34.2562169 80.1175598,33.2585877 79.1337866,32.6489254 C78.1777253,32.094687 77.033223,31.9838393 75.9940259,32.3718062 C72.793299,33.5634188 69.2184612,32.0115512 67.7996108,28.8523922 C67.0347618,27.1342531 66.0925565,25.4992497 65.003478,23.9750941 C62.9444822,21.1207662 63.3851018,17.324233 66.0232767,15.1627031 C66.8823462,14.4421931 67.3673048,13.3891401 67.3423641,12.2806633 C67.3201946,11.1167626 66.7770409,10.0637096 65.8514627,9.37091155 C63.2770253,7.40336514 60.4670364,5.7960737 57.4907761,4.54903724 C56.4044688,4.07793458 55.2045426,4.13335842 54.1985998,4.68759685 C53.2259114,5.24183528 52.5608253,6.1840406 52.3779266,7.26480553 C51.8153746,10.6456599 48.7836904,12.9457494 45.2060814,12.5577825 C43.382637,12.363799 41.4843704,12.363799 39.6553836,12.5577825 C36.1359695,12.9457494 33.0488615,10.6456599 32.4863095,7.26480553 C32.3034108,6.1840406 31.6383247,5.24183528 30.6656363,4.68759685 C29.6569224,4.13335842 28.4569962,4.07793458 27.37346,4.54903724 C24.3971997,5.7960737 21.5872109,7.40336514 19.0127734,9.37091155 C18.0871952,10.0637096 17.5440416,11.1167626 17.5191008,12.2806633 C17.4969313,13.3891401 17.9791187,14.4421931 18.8381883,15.1627031 C21.4791344,17.324233 21.9197539,21.1207662 19.8607582,23.9750941 C18.7716797,25.4992497 17.8294743,27.1342531 17.0646253,28.8523922 C15.6457749,32.0115512 12.0626235,33.5634188 8.90900688,32.3718062 C7.82824195,31.9838393 6.68096841,32.094687 5.73044951,32.6489254 C4.74667631,33.2585877 4.09821735,34.2562169 3.94857297,35.3924056 C3.74073356,36.9996971 3.63542826,38.6347004 3.63542826,40.2697038 C3.63542826,41.8769952 3.74073356,43.5119986 3.94857297,45.11929 C4.09821735,46.2554788 4.74390511,47.253108 5.73044951,47.8627702 C6.6837396,48.4170086 7.82824195,48.5278563 8.87021019,48.1398894 C9.59903372,47.8627702 10.3500268,47.7519225 11.0871639,47.7519225 L11.0871639,47.7519225 Z M28.8643614,79.0663936 C27.9969783,79.0663936 27.1295951,78.8724101 26.2982375,78.5398671 C23.1085954,77.1819829 20.0935383,75.4361319 17.3389733,73.3577378 C15.7316819,72.1384133 14.7867054,70.2817145 14.7506799,68.2864562 C14.709112,66.3189098 15.559868,64.489923 17.0812525,63.2151746 C18.5776962,61.9958501 18.804934,59.8066083 17.6105502,58.143893 C16.410624,56.4811777 15.3769693,54.6799029 14.5372981,52.7954922 C13.7170252,50.9665054 11.6608007,50.052012 9.88446651,50.7170981 C8.00559825,51.4376081 5.98817038,51.2436246 4.29774318,50.2182835 C2.58791764,49.1929424 1.45727125,47.4748033 1.19955038,45.479545 C0.97785501,43.7614059 0.864236133,41.9878429 0.864236133,40.2697038 C0.864236133,38.5238527 0.97785501,36.7780017 1.19955038,35.0321507 C1.45727125,33.0646043 2.58791764,31.3187532 4.30051437,30.2934121 C5.98539919,29.268071 8.00282706,29.0740876 9.84289863,29.7668856 C11.6635719,30.4596836 13.7114828,29.5451902 14.5372981,27.7162034 C15.3741981,25.8317928 16.410624,24.0305179 17.6105502,22.3678026 C18.804934,20.7050874 18.5776962,18.5158456 17.0840237,17.296521 C15.559868,16.0494846 14.709112,14.1927859 14.7506799,12.2252394 C14.7894766,10.2299811 15.7316819,8.37328238 17.3389733,7.15395785 C20.0935383,5.07556375 23.1085954,3.32971271 26.2982375,1.97182856 C28.1632498,1.19589477 30.2471863,1.30674245 32.0013509,2.2766597 C33.7222612,3.21886502 34.8972467,4.8815803 35.218705,6.82141479 C35.5401632,8.73353736 37.324811,10.0082857 39.3671796,9.81430229 C41.3846074,9.59260692 43.4823999,9.59260692 45.4942854,9.81430229 C47.5200268,10.0082857 49.3240729,8.73353736 49.6455312,6.82141479 C49.9669895,4.8815803 51.1419749,3.21886502 52.8628852,2.2766597 C54.619821,1.30674245 56.7009863,1.19589477 58.5659986,1.97182856 C61.7556408,3.32971271 64.7706978,5.07556375 67.5252628,7.15395785 C69.1325542,8.37328238 70.0775307,10.2299811 70.1135562,12.2252394 C70.1551241,14.1927859 69.3043681,16.0494846 67.7829837,17.296521 C66.2865399,18.5158456 66.0593022,20.7050874 67.253686,22.3678026 C68.4536122,24.0305179 69.490038,25.8317928 70.326938,27.7162034 C71.1472109,29.5451902 73.1895795,30.4596836 74.9797696,29.7945975 C76.8641803,29.0740876 78.8816081,29.268071 80.5637218,30.2934121 C82.2763185,31.3187532 83.4069649,33.0646043 83.6646858,35.0598626 C83.8863811,36.7780017 84,38.5238527 84,40.2697038 C84,41.9878429 83.8863811,43.7614059 83.6646858,45.479545 C83.4069649,47.4748033 82.2763185,49.1929424 80.566493,50.2182835 C78.8788369,51.2436246 76.8614091,51.4376081 75.0213375,50.74481 L75.4674994,49.4146378 L74.9797696,50.7170981 C73.2034355,50.052012 71.1472109,50.9665054 70.326938,52.7954922 C69.4872668,54.6799029 68.4536122,56.4811777 67.253686,58.143893 C66.0593022,59.8066083 66.2865399,61.9958501 67.7802125,63.2151746 C69.3043681,64.489923 70.1551241,66.3189098 70.1135562,68.2864562 C70.0747596,70.2817145 69.1325542,72.1384133 67.5252628,73.3577378 C64.7706978,75.4361319 61.7556408,77.1819829 58.5659986,78.5398671 C56.6982151,79.3158009 54.6170499,79.2049532 52.860114,78.235036 C51.1419749,77.2928306 49.9669895,75.6301154 49.6455312,73.6902809 C49.3268441,71.7781583 47.5477387,70.5311218 45.4970566,70.6973934 C43.4796287,70.9190887 41.3818362,70.9190887 39.3699508,70.6973934 C37.324811,70.5034099 35.5401632,71.7781583 35.218705,73.6902809 C34.8972467,75.6301154 33.7222612,77.2928306 32.0041221,78.235036 C31.0258913,78.7892744 29.9478975,79.0663936 28.8643614,79.0663936 L28.8643614,79.0663936 Z" id="Fill-1788"></path>
            <path d="M42.4321181,26.4137431 C34.7919414,26.4137431 28.5761574,32.6489254 28.5761574,40.2697038 C28.5761574,47.9181941 34.7919414,54.1256644 42.4321181,54.1256644 C50.0722948,54.1256644 56.2880787,47.9181941 56.2880787,40.2697038 C56.2880787,32.6489254 50.0722948,26.4137431 42.4321181,26.4137431 L42.4321181,26.4137431 Z M42.4321181,56.8968566 C33.2622433,56.8968566 25.8049653,49.4423497 25.8049653,40.2697038 C25.8049653,31.0970578 33.2622433,23.642551 42.4321181,23.642551 C51.6019928,23.642551 59.0592708,31.0970578 59.0592708,40.2697038 C59.0592708,49.4423497 51.6019928,56.8968566 42.4321181,56.8968566 L42.4321181,56.8968566 Z" id="Fill-1789"></path>
        </g>
    </g>
</svg>