<?xml version="1.0" encoding="UTF-8"?>
<svg width="84px" height="84px" viewBox="0 0 84 84" version="1.1" xmlns="http://www.w3.org/2000/svg" xmlns:xlink="http://www.w3.org/1999/xlink">
    <!-- Generator: Sketch 52.2 (67145) - http://www.bohemiancoding.com/sketch -->
    <title>icon--stop</title>
    <desc>Created with Sketch.</desc>
    <g id="icon--stop" stroke="none" stroke-width="1" fill="none" fill-rule="evenodd">
        <g id="Group-6" fill="#000000">
            <path d="M28,56 L56,56 L56,28 L28,28 L28,56 Z M57.4,58.8 L26.6,58.8 C25.8272,58.8 25.2,58.1728 25.2,57.4 L25.2,26.6 C25.2,25.8272 25.8272,25.2 26.6,25.2 L57.4,25.2 C58.1728,25.2 58.8,25.8272 58.8,26.6 L58.8,57.4 C58.8,58.1728 58.1728,58.8 57.4,58.8 L57.4,58.8 Z" id="Fill-528"></path>
            <path d="M19.054,2.8 C10.0912,2.8 2.8,10.0912 2.8,19.054 L2.8,64.946 C2.8,73.9088 10.0912,81.2 19.054,81.2 L64.946,81.2 C73.9088,81.2 81.2,73.9088 81.2,64.946 L81.2,19.054 C81.2,10.0912 73.9088,2.8 64.946,2.8 L19.054,2.8 L19.054,2.8 Z M64.946,84 L19.054,84 C8.5484,84 0,75.4516 0,64.946 L0,19.054 C0,8.5484 8.5484,0 19.054,0 L64.946,0 C75.4516,0 84,8.5484 84,19.054 L84,64.946 C84,75.4516 75.4516,84 64.946,84 L64.946,84 Z" id="Fill-529"></path>
        </g>
    </g>
</svg>