<?xml version="1.0" encoding="UTF-8"?>
<svg width="84px" height="84px" viewBox="0 0 84 84" version="1.1" xmlns="http://www.w3.org/2000/svg" xmlns:xlink="http://www.w3.org/1999/xlink">
    <!-- Generator: Sketch 52.2 (67145) - http://www.bohemiancoding.com/sketch -->
    <title>icon--zoom-fit</title>
    <desc>Created with Sketch.</desc>
    <g id="icon--zoom-fit" stroke="none" stroke-width="1" fill="none" fill-rule="evenodd">
        <path d="M28.7810526,2.8 C14.4234189,2.8 2.74105263,14.7336 2.74105263,29.4 C2.74105263,44.0664 14.4234189,56 28.7810526,56 C43.1386863,56 54.8210526,44.0664 54.8210526,29.4 C54.8210526,14.7336 43.1386863,2.8 28.7810526,2.8 M28.7810526,58.8 C12.9103579,58.8 -1.13686838e-13,45.612 -1.13686838e-13,29.4 C-1.13686838e-13,13.188 12.9103579,0 28.7810526,0 C44.6517474,0 57.5621053,13.188 57.5621053,29.4 C57.5621053,45.612 44.6517474,58.8 28.7810526,58.8" id="Fill-556" fill="#000000"></path>
        <path d="M75.9893798,84 C74.3228198,84 72.7549377,83.3364 71.5762851,82.1324 L43.5819145,53.5388 C43.0474093,52.99 43.0474093,52.1052 43.5819145,51.5592 C44.1191608,51.0104 44.9853335,51.0104 45.5198387,51.5592 L73.5142093,80.1528 C74.1638387,80.8192 75.0683861,81.2 75.9893798,81.2 C77.9190808,81.2 79.489704,79.5956 79.489704,77.6244 C79.489704,76.6836 79.1169208,75.7596 78.4645503,75.0932 L50.4153587,46.4408 C49.8808535,45.8948 49.8808535,45.01 50.4153587,44.4612 C50.9526051,43.9152 51.8187777,43.9152 52.3532829,44.4612 L80.4024745,73.1136 C81.5838682,74.3204 82.2307566,75.922 82.2307566,77.6244 C82.2307566,81.1412 79.4321419,84 75.9893798,84" id="Fill-558" fill="#000000"></path>
        <path d="M22.8007,36.607 C22.4423,36.607 22.0839,36.467 21.8095,36.187 C21.2635,35.627 21.2635,34.759 21.8095,34.199 L41.4095,14.599 C41.9555,14.067 42.8431,14.067 43.3891,14.599 C43.9351,15.159 43.9351,16.027 43.3891,16.587 L23.7891,36.187 C23.5147,36.467 23.1591,36.607 22.8007,36.607" id="Fill-311" fill="#0A0B09"></path>
        <path d="M42.4,31 C41.6244,31 41,30.356 41,29.6 L41,17 L28.4,17 C27.6244,17 27,16.356 27,15.6 C27,14.816 27.6244,14.2 28.4,14.2 L42.4,14.2 C43.1728,14.2 43.8,14.816 43.8,15.6 L43.8,29.6 C43.8,30.356 43.1728,31 42.4,31" id="Fill-312" fill="#0A0B09"></path>
        <path d="M14.6007,44.807 C14.2423,44.807 13.8839,44.667 13.6095,44.387 C13.0635,43.827 13.0635,42.959 13.6095,42.399 L33.2095,22.799 C33.7555,22.267 34.6431,22.267 35.1891,22.799 C35.7351,23.359 35.7351,24.227 35.1891,24.787 L15.5891,44.387 C15.3147,44.667 14.9591,44.807 14.6007,44.807" id="Fill-313" fill="#0A0B09"></path>
        <path d="M28.6,44.8 L14.6,44.8 C13.8244,44.8 13.2,44.156 13.2,43.4 L13.2,29.4 C13.2,28.616 13.8244,28 14.6,28 C15.3728,28 16,28.616 16,29.4 L16,42 L28.6,42 C29.3728,42 30,42.616 30,43.4 C30,44.156 29.3728,44.8 28.6,44.8" id="Fill-314" fill="#0A0B09"></path>
    </g>
</svg>