<?xml version="1.0" encoding="UTF-8"?>
<svg width="84px" height="84px" viewBox="0 0 84 84" version="1.1" xmlns="http://www.w3.org/2000/svg" xmlns:xlink="http://www.w3.org/1999/xlink">
    <!-- Generator: Sketch 52.2 (67145) - http://www.bohemiancoding.com/sketch -->
    <title>icon--homing</title>
    <desc>Created with Sketch.</desc>
    <g id="icon--homing" stroke="none" stroke-width="1" fill="none" fill-rule="evenodd">
        <path d="M73,16.5 C76.0375661,16.5 78.5,14.0375661 78.5,11 C78.5,7.96243388 76.0375661,5.5 73,5.5 C69.9624339,5.5 67.5,7.96243388 67.5,11 C67.5,14.0375661 69.9624339,16.5 73,16.5 Z M73,18.5 C68.8578644,18.5 65.5,15.1421356 65.5,11 C65.5,6.85786438 68.8578644,3.5 73,3.5 C77.1421356,3.5 80.5,6.85786438 80.5,11 C80.5,15.1421356 77.1421356,18.5 73,18.5 Z" ></path>
        <path d="M11,75 C12.1045695,75 13,74.1045695 13,73 C13,71.8954305 12.1045695,71 11,71 C9.8954305,71 9,71.8954305 9,73 C9,74.1045695 9.8954305,75 11,75 Z M11,77 C8.790861,77 7,75.209139 7,73 C7,70.790861 8.790861,69 11,69 C13.209139,69 15,70.790861 15,73 C15,75.209139 13.209139,77 11,77 Z"></path>
        <path d="M31.6666667,75 C32.7712362,75 33.6666667,74.1045695 33.6666667,73 C33.6666667,71.8954305 32.7712362,71 31.6666667,71 C30.5620972,71 29.6666667,71.8954305 29.6666667,73 C29.6666667,74.1045695 30.5620972,75 31.6666667,75 Z M31.6666667,77 C29.4575277,77 27.6666667,75.209139 27.6666667,73 C27.6666667,70.790861 29.4575277,69 31.6666667,69 C33.8758057,69 35.6666667,70.790861 35.6666667,73 C35.6666667,75.209139 33.8758057,77 31.6666667,77 Z" ></path>
        <path d="M52.3333333,75 C53.4379028,75 54.3333333,74.1045695 54.3333333,73 C54.3333333,71.8954305 53.4379028,71 52.3333333,71 C51.2287638,71 50.3333333,71.8954305 50.3333333,73 C50.3333333,74.1045695 51.2287638,75 52.3333333,75 Z M52.3333333,77 C50.1241943,77 48.3333333,75.209139 48.3333333,73 C48.3333333,70.790861 50.1241943,69 52.3333333,69 C54.5424723,69 56.3333333,70.790861 56.3333333,73 C56.3333333,75.209139 54.5424723,77 52.3333333,77 Z" ></path>
        <path d="M73,75 C74.1045695,75 75,74.1045695 75,73 C75,71.8954305 74.1045695,71 73,71 C71.8954305,71 71,71.8954305 71,73 C71,74.1045695 71.8954305,75 73,75 Z M73,77 C70.790861,77 69,75.209139 69,73 C69,70.790861 70.790861,69 73,69 C75.209139,69 77,70.790861 77,73 C77,75.209139 75.209139,77 73,77 Z" ></path>
        <path d="M11,54.3333333 C12.1045695,54.3333333 13,53.4379028 13,52.3333333 C13,51.2287638 12.1045695,50.3333333 11,50.3333333 C9.8954305,50.3333333 9,51.2287638 9,52.3333333 C9,53.4379028 9.8954305,54.3333333 11,54.3333333 Z M11,56.3333333 C8.790861,56.3333333 7,54.5424723 7,52.3333333 C7,50.1241943 8.790861,48.3333333 11,48.3333333 C13.209139,48.3333333 15,50.1241943 15,52.3333333 C15,54.5424723 13.209139,56.3333333 11,56.3333333 Z"></path>
        <path d="M31.6666667,54.3333333 C32.7712362,54.3333333 33.6666667,53.4379028 33.6666667,52.3333333 C33.6666667,51.2287638 32.7712362,50.3333333 31.6666667,50.3333333 C30.5620972,50.3333333 29.6666667,51.2287638 29.6666667,52.3333333 C29.6666667,53.4379028 30.5620972,54.3333333 31.6666667,54.3333333 Z M31.6666667,56.3333333 C29.4575277,56.3333333 27.6666667,54.5424723 27.6666667,52.3333333 C27.6666667,50.1241943 29.4575277,48.3333333 31.6666667,48.3333333 C33.8758057,48.3333333 35.6666667,50.1241943 35.6666667,52.3333333 C35.6666667,54.5424723 33.8758057,56.3333333 31.6666667,56.3333333 Z" ></path>
        <path d="M52.3333333,54.3333333 C53.4379028,54.3333333 54.3333333,53.4379028 54.3333333,52.3333333 C54.3333333,51.2287638 53.4379028,50.3333333 52.3333333,50.3333333 C51.2287638,50.3333333 50.3333333,51.2287638 50.3333333,52.3333333 C50.3333333,53.4379028 51.2287638,54.3333333 52.3333333,54.3333333 Z M52.3333333,56.3333333 C50.1241943,56.3333333 48.3333333,54.5424723 48.3333333,52.3333333 C48.3333333,50.1241943 50.1241943,48.3333333 52.3333333,48.3333333 C54.5424723,48.3333333 56.3333333,50.1241943 56.3333333,52.3333333 C56.3333333,54.5424723 54.5424723,56.3333333 52.3333333,56.3333333 Z" ></path>
        <path d="M73,54.3333333 C74.1045695,54.3333333 75,53.4379028 75,52.3333333 C75,51.2287638 74.1045695,50.3333333 73,50.3333333 C71.8954305,50.3333333 71,51.2287638 71,52.3333333 C71,53.4379028 71.8954305,54.3333333 73,54.3333333 Z M73,56.3333333 C70.790861,56.3333333 69,54.5424723 69,52.3333333 C69,50.1241943 70.790861,48.3333333 73,48.3333333 C75.209139,48.3333333 77,50.1241943 77,52.3333333 C77,54.5424723 75.209139,56.3333333 73,56.3333333 Z"></path>
        <path d="M11,33.6666667 C12.1045695,33.6666667 13,32.7712362 13,31.6666667 C13,30.5620972 12.1045695,29.6666667 11,29.6666667 C9.8954305,29.6666667 9,30.5620972 9,31.6666667 C9,32.7712362 9.8954305,33.6666667 11,33.6666667 Z M11,35.6666667 C8.790861,35.6666667 7,33.8758057 7,31.6666667 C7,29.4575277 8.790861,27.6666667 11,27.6666667 C13.209139,27.6666667 15,29.4575277 15,31.6666667 C15,33.8758057 13.209139,35.6666667 11,35.6666667 Z"></path>
        <path d="M31.6666667,33.6666667 C32.7712362,33.6666667 33.6666667,32.7712362 33.6666667,31.6666667 C33.6666667,30.5620972 32.7712362,29.6666667 31.6666667,29.6666667 C30.5620972,29.6666667 29.6666667,30.5620972 29.6666667,31.6666667 C29.6666667,32.7712362 30.5620972,33.6666667 31.6666667,33.6666667 Z M31.6666667,35.6666667 C29.4575277,35.6666667 27.6666667,33.8758057 27.6666667,31.6666667 C27.6666667,29.4575277 29.4575277,27.6666667 31.6666667,27.6666667 C33.8758057,27.6666667 35.6666667,29.4575277 35.6666667,31.6666667 C35.6666667,33.8758057 33.8758057,35.6666667 31.6666667,35.6666667 Z"></path>
        <path d="M52.3333333,33.6666667 C53.4379028,33.6666667 54.3333333,32.7712362 54.3333333,31.6666667 C54.3333333,30.5620972 53.4379028,29.6666667 52.3333333,29.6666667 C51.2287638,29.6666667 50.3333333,30.5620972 50.3333333,31.6666667 C50.3333333,32.7712362 51.2287638,33.6666667 52.3333333,33.6666667 Z M52.3333333,35.6666667 C50.1241943,35.6666667 48.3333333,33.8758057 48.3333333,31.6666667 C48.3333333,29.4575277 50.1241943,27.6666667 52.3333333,27.6666667 C54.5424723,27.6666667 56.3333333,29.4575277 56.3333333,31.6666667 C56.3333333,33.8758057 54.5424723,35.6666667 52.3333333,35.6666667 Z"></path>
        <path d="M73,33.6666667 C74.1045695,33.6666667 75,32.7712362 75,31.6666667 C75,30.5620972 74.1045695,29.6666667 73,29.6666667 C71.8954305,29.6666667 71,30.5620972 71,31.6666667 C71,32.7712362 71.8954305,33.6666667 73,33.6666667 Z M73,35.6666667 C70.790861,35.6666667 69,33.8758057 69,31.6666667 C69,29.4575277 70.790861,27.6666667 73,27.6666667 C75.209139,27.6666667 77,29.4575277 77,31.6666667 C77,33.8758057 75.209139,35.6666667 73,35.6666667 Z"></path>
        <path d="M11,13 C12.1045695,13 13,12.1045695 13,11 C13,9.8954305 12.1045695,9 11,9 C9.8954305,9 9,9.8954305 9,11 C9,12.1045695 9.8954305,13 11,13 Z M11,15 C8.790861,15 7,13.209139 7,11 C7,8.790861 8.790861,7 11,7 C13.209139,7 15,8.790861 15,11 C15,13.209139 13.209139,15 11,15 Z"></path>
        <path d="M31.6666667,13 C32.7712362,13 33.6666667,12.1045695 33.6666667,11 C33.6666667,9.8954305 32.7712362,9 31.6666667,9 C30.5620972,9 29.6666667,9.8954305 29.6666667,11 C29.6666667,12.1045695 30.5620972,13 31.6666667,13 Z M31.6666667,15 C29.4575277,15 27.6666667,13.209139 27.6666667,11 C27.6666667,8.790861 29.4575277,7 31.6666667,7 C33.8758057,7 35.6666667,8.790861 35.6666667,11 C35.6666667,13.209139 33.8758057,15 31.6666667,15 Z"></path>
        <path d="M52.3333333,13 C53.4379028,13 54.3333333,12.1045695 54.3333333,11 C54.3333333,9.8954305 53.4379028,9 52.3333333,9 C51.2287638,9 50.3333333,9.8954305 50.3333333,11 C50.3333333,12.1045695 51.2287638,13 52.3333333,13 Z M52.3333333,15 C50.1241943,15 48.3333333,13.209139 48.3333333,11 C48.3333333,8.790861 50.1241943,7 52.3333333,7 C54.5424723,7 56.3333333,8.790861 56.3333333,11 C56.3333333,13.209139 54.5424723,15 52.3333333,15 Z"></path>
        <polygon points="72 1 74 1 74 8 72 8"></polygon>
        <polygon points="78.5 7.5 80.5 7.5 80.5 14.5 78.5 14.5"></polygon>
        <polygon points="64.5 7.5 66.5 7.5 66.5 14.5 64.5 14.5"></polygon>
        <polygon points="72 15 74 15 74 22 72 22"></polygon>
    </g>
</svg>
