<?xml version="1.0" encoding="UTF-8"?>
<svg width="84px" height="84px" viewBox="0 0 84 84" version="1.1" xmlns="http://www.w3.org/2000/svg" xmlns:xlink="http://www.w3.org/1999/xlink">
    <!-- Generator: Sketch 52.2 (67145) - http://www.bohemiancoding.com/sketch -->
    <title>icon--fullscreen-leave</title>
    <desc>Created with Sketch.</desc>
    <g id="icon--fullscreen-leave" stroke="none" stroke-width="1" fill="none" fill-rule="evenodd">
        <g id="Group" fill="#0A0B09">
            <path d="M8.4588,2.8 C5.3396,2.8 2.8,5.32 2.8,8.456 L2.8,75.516 C2.8,78.652 5.3396,81.2 8.4588,81.2 L75.5384,81.2 C78.6576,81.2 81.2,78.652 81.2,75.516 L81.2,8.456 C81.2,5.32 78.6576,2.8 75.5384,2.8 L8.4588,2.8 Z M75.5384,84 L8.4588,84 C3.794,84 0,80.192 0,75.516 L0,8.456 C0,3.78 3.794,0 8.4588,0 L75.5384,0 C80.2032,0 84,3.78 84,8.456 L84,75.516 C84,80.192 80.2032,84 75.5384,84 L75.5384,84 Z" id="Fill-317"></path>
            <path d="M32.2007,33.607 C31.8423,33.607 31.4839,33.467 31.2095,33.187 L11.6095,13.587 C11.0635,13.027 11.0635,12.159 11.6095,11.599 C12.1555,11.067 13.0431,11.067 13.5891,11.599 L33.1891,31.199 C33.7351,31.759 33.7351,32.627 33.1891,33.187 C32.9147,33.467 32.5591,33.607 32.2007,33.607" id="Fill-318"></path>
            <path d="M32.2,33.6 L18.2,33.6 C17.4244,33.6 16.8,32.956 16.8,32.2 C16.8,31.416 17.4244,30.8 18.2,30.8 L30.8,30.8 L30.8,18.2 C30.8,17.416 31.4244,16.8 32.2,16.8 C32.9728,16.8 33.6,17.416 33.6,18.2 L33.6,32.2 C33.6,32.956 32.9728,33.6 32.2,33.6" id="Fill-319"></path>
            <path d="M51.8007,33.607 C51.4423,33.607 51.0839,33.467 50.8095,33.187 C50.2635,32.627 50.2635,31.759 50.8095,31.199 L70.4095,11.599 C70.9555,11.067 71.8431,11.067 72.3891,11.599 C72.9351,12.159 72.9351,13.027 72.3891,13.587 L52.7891,33.187 C52.5147,33.467 52.1591,33.607 51.8007,33.607" id="Fill-320"></path>
            <path d="M65.8,33.6 L51.8,33.6 C51.0244,33.6 50.4,32.956 50.4,32.2 L50.4,18.2 C50.4,17.416 51.0244,16.8 51.8,16.8 C52.5728,16.8 53.2,17.416 53.2,18.2 L53.2,30.8 L65.8,30.8 C66.5728,30.8 67.2,31.416 67.2,32.2 C67.2,32.956 66.5728,33.6 65.8,33.6" id="Fill-321"></path>
            <path d="M12.6007,72.807 C12.2423,72.807 11.8839,72.667 11.6095,72.387 C11.0635,71.827 11.0635,70.959 11.6095,70.399 L31.2095,50.799 C31.7555,50.267 32.6431,50.267 33.1891,50.799 C33.7351,51.359 33.7351,52.227 33.1891,52.787 L13.5891,72.387 C13.3147,72.667 12.9591,72.807 12.6007,72.807" id="Fill-322"></path>
            <path d="M32.2,67.2 C31.4244,67.2 30.8,66.556 30.8,65.8 L30.8,53.2 L18.2,53.2 C17.4244,53.2 16.8,52.556 16.8,51.8 C16.8,51.016 17.4244,50.4 18.2,50.4 L32.2,50.4 C32.9728,50.4 33.6,51.016 33.6,51.8 L33.6,65.8 C33.6,66.556 32.9728,67.2 32.2,67.2" id="Fill-323"></path>
            <path d="M71.4007,72.807 C71.0423,72.807 70.6839,72.667 70.4095,72.387 L50.8095,52.787 C50.2635,52.227 50.2635,51.359 50.8095,50.799 C51.3555,50.267 52.2431,50.267 52.7891,50.799 L72.3891,70.399 C72.9351,70.959 72.9351,71.827 72.3891,72.387 C72.1147,72.667 71.7591,72.807 71.4007,72.807" id="Fill-324"></path>
            <path d="M51.8,67.2 C51.0244,67.2 50.4,66.556 50.4,65.8 L50.4,51.8 C50.4,51.016 51.0244,50.4 51.8,50.4 L65.8,50.4 C66.5728,50.4 67.2,51.016 67.2,51.8 C67.2,52.556 66.5728,53.2 65.8,53.2 L53.2,53.2 L53.2,65.8 C53.2,66.556 52.5728,67.2 51.8,67.2" id="Fill-325"></path>
        </g>
    </g>
</svg>