<?xml version="1.0" encoding="UTF-8"?>
<svg width="84px" height="84px" viewBox="0 0 84 84" version="1.1" xmlns="http://www.w3.org/2000/svg" xmlns:xlink="http://www.w3.org/1999/xlink">
    <!-- Generator: Sketch 52.2 (67145) - http://www.bohemiancoding.com/sketch -->
    <title>icon--camera-move</title>
    <desc>Created with Sketch.</desc>
    <g id="icon--camera-move" stroke="none" stroke-width="1" fill="none" fill-rule="evenodd">
        <path d="M48.0007,8.4 C47.6423,8.4 47.2839,8.26 47.0095,8.008 L42.4007,3.388 L37.7919,8.008 C37.2431,8.54 36.3583,8.54 35.8095,8.008 C35.2635,7.448 35.2635,6.552 35.8095,6.02 L41.4095,0.42 C41.9583,-0.14 42.8431,-0.14 43.3919,0.42 L48.9919,6.02 C49.5379,6.552 49.5379,7.448 48.9919,8.008 C48.7175,8.26 48.3591,8.4 48.0007,8.4" id="Fill-7032" fill="#000000"></path>
        <path d="M70.4,28 L56.4,28 C55.6272,28 55,27.384 55,26.6 C55,25.844 55.6272,25.2 56.4,25.2 L70.4,25.2 C71.1728,25.2 71.8,25.844 71.8,26.6 C71.8,27.384 71.1728,28 70.4,28" id="Fill-7033" fill="#000000"></path>
        <path d="M64.8007,33.6 C64.4423,33.6 64.0839,33.46 63.8095,33.208 C63.2635,32.648 63.2635,31.752 63.8095,31.22 L68.4211,26.6 L63.8095,22.008 C63.2635,21.448 63.2635,20.552 63.8095,20.02 C64.3583,19.46 65.2431,19.46 65.7919,20.02 L71.3919,25.62 C71.9379,26.152 71.9379,27.048 71.3919,27.608 L65.7919,33.208 C65.5175,33.46 65.1591,33.6 64.8007,33.6" id="Fill-7034" fill="#000000"></path>
        <path d="M18.6,42 C17.1832,42 15.8,43.624 15.8,44.8 L15.8,59.808 C15.8,66.976 22.17,72.8 30.0044,72.8 L39.3592,72.8 C42.26,72.8 45.0404,71.68 46.9948,69.72 L62.7812,53.816 C63.5484,53.06 63.61,51.94 62.9352,51.1 C61.1768,48.944 57.8784,48.44 55.4228,49.924 L48.5824,53.088 C48.1512,53.284 47.6444,53.256 47.2412,52.976 C46.8436,52.724 46.6,52.276 46.6,51.8 L46.6,28 C46.6,26.824 45.2168,25.2 43.8,25.2 C42.3832,25.2 41,26.824 41,28 L41,49 C41,49.784 40.3728,50.4 39.6,50.4 C38.8272,50.4 38.2,49.784 38.2,49 L38.2,39.2 C38.2,38.024 36.8168,36.4 35.4,36.4 C33.9832,36.4 32.6,38.024 32.6,39.2 L32.6,49 C32.6,49.784 31.9728,50.4 31.2,50.4 C30.4272,50.4 29.8,49.784 29.8,49 L29.8,42 C29.8,40.824 28.4168,39.2 27,39.2 C25.5832,39.2 24.2,40.824 24.2,42 L24.2,49 C24.2,49.784 23.5728,50.4 22.8,50.4 C22.0272,50.4 21.4,49.784 21.4,49 L21.4,44.408 C21.4,43.232 19.986,42 18.6,42 L18.6,42 Z M39.3592,75.6 L30.0044,75.6 C20.63,75.6 13,68.516 13,59.808 L13,44.8 C13,41.972 15.772,39.2 18.6,39.2 C19.7424,39.2 20.8456,39.592 21.764,40.208 C22.6068,38.108 24.788,36.4 27,36.4 C28.1032,36.4 29.1952,36.82 30.122,37.52 C30.9312,35.364 33.1488,33.6 35.4,33.6 C36.3772,33.6 37.346,33.936 38.2,34.496 L38.2,28 C38.2,25.172 40.972,22.4 43.8,22.4 C46.628,22.4 49.4,25.172 49.4,28 L49.4,49.616 L54.1096,47.46 C57.5816,45.304 62.4844,46.116 65.1052,49.336 C66.6928,51.296 66.55,54.012 64.7664,55.804 L48.98,71.68 C46.5076,74.172 42.9992,75.6 39.3592,75.6 L39.3592,75.6 Z" id="Fill-7037" fill="#000000"></path>
        <path d="M42.4,16.8 C41.6272,16.8 41,16.184 41,15.4 L41,1.4 C41,0.644 41.6272,0 42.4,0 C43.1728,0 43.8,0.644 43.8,1.4 L43.8,15.4 C43.8,16.184 43.1728,16.8 42.4,16.8" id="Fill-7031" fill="#000000"></path>
        <path d="M31.2,28 L17.2,28 C16.4272,28 15.8,27.384 15.8,26.6 C15.8,25.844 16.4272,25.2 17.2,25.2 L31.2,25.2 C31.9728,25.2 32.6,25.844 32.6,26.6 C32.6,27.384 31.9728,28 31.2,28" id="Fill-7035" fill="#000000"></path>
        <path d="M22.8007,33.6 C22.4423,33.6 22.0839,33.46 21.8095,33.208 L16.2095,27.608 C15.6635,27.048 15.6635,26.152 16.2095,25.62 L21.8095,20.02 C22.3583,19.46 23.2431,19.46 23.7919,20.02 C24.3379,20.552 24.3379,21.448 23.7919,22.008 L19.1803,26.6 L23.7919,31.22 C24.3379,31.752 24.3379,32.648 23.7919,33.208 C23.5175,33.46 23.1591,33.6 22.8007,33.6" id="Fill-7036" fill="#000000"></path>
        <path d="M48,84 C47.2272,84 46.6,83.384 46.6,82.6 L46.6,75.6 L21.4,75.6 L21.4,82.6 C21.4,83.384 20.7728,84 20,84 C19.2272,84 18.6,83.384 18.6,82.6 L18.6,74.2 C18.6,73.444 19.2272,72.8 20,72.8 L48,72.8 C48.7728,72.8 49.4,73.444 49.4,74.2 L49.4,82.6 C49.4,83.384 48.7728,84 48,84" id="Fill-7038" fill="#000000"></path>
    </g>
</svg>