<?xml version="1.0" encoding="UTF-8"?>
<svg width="84px" height="84px" viewBox="0 0 84 84" version="1.1" xmlns="http://www.w3.org/2000/svg" xmlns:xlink="http://www.w3.org/1999/xlink">
    <!-- Generator: Sketch 52.2 (67145) - http://www.bohemiancoding.com/sketch -->
    <title>icon--zoom-out</title>
    <desc>Created with Sketch.</desc>
    <g id="icon--zoom-out" stroke="none" stroke-width="1" fill="none" fill-rule="evenodd">
        <path d="M28.7810526,2.8 C14.4234189,2.8 2.74105263,14.7336 2.74105263,29.4 C2.74105263,44.0664 14.4234189,56 28.7810526,56 C43.1386863,56 54.8210526,44.0664 54.8210526,29.4 C54.8210526,14.7336 43.1386863,2.8 28.7810526,2.8 M28.7810526,58.8 C12.9103579,58.8 -1.13686838e-13,45.612 -1.13686838e-13,29.4 C-1.13686838e-13,13.188 12.9103579,0 28.7810526,0 C44.6517474,0 57.5621053,13.188 57.5621053,29.4 C57.5621053,45.612 44.6517474,58.8 28.7810526,58.8" id="Fill-556" fill="#000000"></path>
        <path d="M75.9893798,84 C74.3228198,84 72.7549377,83.3364 71.5762851,82.1324 L43.5819145,53.5388 C43.0474093,52.99 43.0474093,52.1052 43.5819145,51.5592 C44.1191608,51.0104 44.9853335,51.0104 45.5198387,51.5592 L73.5142093,80.1528 C74.1638387,80.8192 75.0683861,81.2 75.9893798,81.2 C77.9190808,81.2 79.489704,79.5956 79.489704,77.6244 C79.489704,76.6836 79.1169208,75.7596 78.4645503,75.0932 L50.4153587,46.4408 C49.8808535,45.8948 49.8808535,45.01 50.4153587,44.4612 C50.9526051,43.9152 51.8187777,43.9152 52.3532829,44.4612 L80.4024745,73.1136 C81.5838682,74.3204 82.2307566,75.922 82.2307566,77.6244 C82.2307566,81.1412 79.4321419,84 75.9893798,84" id="Fill-558" fill="#000000"></path>
        <path d="M12.5,31 C11.6715729,31 11,30.3284271 11,29.5 C11,28.6715729 11.6715729,28 12.5,28 L44.1810356,28 C45.0094627,28 45.6810356,28.6715729 45.6810356,29.5 C45.6810356,30.3284271 45.0094627,31 44.1810356,31 L12.5,31 Z" id="Line-Copy-2" fill="#000000" fill-rule="nonzero"></path>
    </g>
</svg>