<?xml version="1.0" encoding="UTF-8"?>
<svg width="84px" height="84px" viewBox="0 0 84 84" version="1.1" xmlns="http://www.w3.org/2000/svg" xmlns:xlink="http://www.w3.org/1999/xlink">
    <!-- Generator: Sketch 52.2 (67145) - http://www.bohemiancoding.com/sketch -->
    <title>icon--invisible</title>
    <desc>Created with Sketch.</desc>
    <g id="icon--invisible" stroke="none" stroke-width="1" fill="none" fill-rule="evenodd">
        <path d="M52.9827259,41.5915871 L55.6196421,38.9546709 C55.8679202,39.9966634 55.9993906,41.0834459 55.9993906,42.2003558 C55.9993906,49.9200648 49.7189019,56.2005534 41.9991929,56.2005534 C40.882283,56.2005534 39.7955005,56.0690831 38.753508,55.8208049 L41.3904243,53.1838887 C41.5919726,53.1949499 41.7949441,53.2005534 41.9991929,53.2005534 C48.0620477,53.2005534 52.9993906,48.2632105 52.9993906,42.2003558 C52.9993906,41.9961069 52.9937871,41.7931355 52.9827259,41.5915871 Z M42.1597954,31.2013142 C42.106351,31.2005443 42.052816,31.2001581 41.9991929,31.2001581 C35.9363382,31.2001581 30.9989953,36.137501 30.9989953,42.2003558 C30.9989953,42.2539787 30.9993815,42.3075135 31.0001513,42.3609576 L28.2940307,45.0670788 C28.1006642,44.1414502 27.9989953,43.1825521 27.9989953,42.2003558 C27.9989953,34.4806468 34.2794839,28.2001581 41.9991929,28.2001581 C42.9813892,28.2001581 43.9402873,28.301827 44.865916,28.4951936 L42.1597954,31.2013142 Z" id="Combined-Shape" fill="#000000" fill-rule="nonzero"></path>
        <path d="M66.3438649,28.2304481 L68.4930729,26.0812401 C77.902706,32.7865256 83.3796328,40.8461376 83.7645826,41.4219448 C84.1061874,41.934352 84.0725869,42.6091615 83.6861815,43.0851683 C82.87697,44.0763823 63.5986979,67.4007115 41.9991929,67.4007115 C37.7210999,67.4007115 33.5341775,66.4857096 29.5638504,65.0104626 L31.9070608,62.6672522 C35.3133901,63.7993542 38.6888104,64.4007115 41.9991929,64.4007115 C50.6872996,64.4007115 59.8239205,60.2585573 68.791856,53.2507745 C72.0303532,50.7201268 75.0284153,47.9809114 77.7163512,45.2127409 C78.6817844,44.2184897 79.5456311,43.2831027 80.2995125,42.4291352 C80.3975225,42.3181132 80.490384,42.2122276 80.5779599,42.1117495 C80.5230048,42.037056 80.4655505,41.959454 80.4056061,41.8790165 C79.7768735,41.0353396 79.0434967,40.1098967 78.2088965,39.1251938 C75.8811045,36.3787491 73.186789,33.6595307 70.1564933,31.1463443 C68.9074348,30.1104332 67.636352,29.1370806 66.3438649,28.2304481 Z M52.0183701,21.3427394 C48.7745912,20.4636139 45.4324775,20 41.9991929,20 C33.3111313,20 24.1750934,24.1421138 15.2080352,31.1498547 C11.9698621,33.6804816 8.97214608,36.4196711 6.28451862,39.1878456 C5.31921163,40.1820824 4.45548181,41.1174541 3.70166975,41.9714443 C3.63199468,42.0503788 3.56492869,42.1267089 3.50050573,42.2003556 C3.56493146,42.2740058 3.63199612,42.3503343 3.70166975,42.4292673 C4.45548181,43.2832574 5.31921163,44.2186291 6.28451862,45.2128659 C8.97214608,47.9810405 11.9698621,50.72023 15.2080352,53.2508568 C16.1421066,53.980832 17.0780115,54.679713 18.0150526,55.3460569 L15.8659834,57.4951261 C6.85574218,51.0094253 0.762447008,43.6332467 0.315004447,43.0851683 C-0.105001482,42.569961 -0.105001482,41.8307506 0.315004447,41.3155433 C1.12421587,40.3243293 20.399688,17 41.9991929,17 C46.4401109,17 50.5932633,17.7290878 54.4256247,18.9354848 L52.0183701,21.3427394 Z" id="Combined-Shape" fill="#000000" fill-rule="nonzero"></path>
        <path d="M6.56066017,79.7877986 C5.97487373,80.3735851 5.02512627,80.3735851 4.43933983,79.7877986 C3.85355339,79.2020122 3.85355339,78.2522647 4.43933983,77.6664783 L76.6664783,5.43933983 C77.2522647,4.85355339 78.2020122,4.85355339 78.7877986,5.43933983 C79.3735851,6.02512627 79.3735851,6.97487373 78.7877986,7.56066017 L6.56066017,79.7877986 Z" id="Line-6" fill="#000000" fill-rule="nonzero"></path>
    </g>
</svg>