<?xml version="1.0" encoding="UTF-8"?>
<svg width="84px" height="84px" viewBox="0 0 84 84" version="1.1" xmlns="http://www.w3.org/2000/svg" xmlns:xlink="http://www.w3.org/1999/xlink">
    <!-- Generator: Sketch 52.2 (67145) - http://www.bohemiancoding.com/sketch -->
    <title>icon--fullscreen-enter</title>
    <desc>Created with Sketch.</desc>
    <g id="icon--fullscreen-enter" stroke="none" stroke-width="1" fill="none" fill-rule="evenodd">
        <g id="Group" fill="#0A0B09">
            <path d="M8.4588,2.8 C5.3396,2.8 2.8,5.32 2.8,8.456 L2.8,75.516 C2.8,78.652 5.3396,81.2 8.4588,81.2 L75.5384,81.2 C78.6576,81.2 81.2,78.652 81.2,75.516 L81.2,8.456 C81.2,5.32 78.6576,2.8 75.5384,2.8 L8.4588,2.8 Z M75.5384,84 L8.4588,84 C3.794,84 0,80.192 0,75.516 L0,8.456 C0,3.78 3.794,0 8.4588,0 L75.5384,0 C80.2032,0 84,3.78 84,8.456 L84,75.516 C84,80.192 80.2032,84 75.5384,84 L75.5384,84 Z" id="Fill-308"></path>
            <path d="M32.2007,33.607 C31.8423,33.607 31.4839,33.467 31.2095,33.187 L11.6095,13.587 C11.0635,13.027 11.0635,12.159 11.6095,11.599 C12.1555,11.067 13.0431,11.067 13.5891,11.599 L33.1891,31.199 C33.7351,31.759 33.7351,32.627 33.1891,33.187 C32.9147,33.467 32.5591,33.607 32.2007,33.607" id="Fill-309"></path>
            <path d="M12.6,28 C11.8244,28 11.2,27.356 11.2,26.6 L11.2,12.6 C11.2,11.816 11.8244,11.2 12.6,11.2 L26.6,11.2 C27.3728,11.2 28,11.816 28,12.6 C28,13.356 27.3728,14 26.6,14 L14,14 L14,26.6 C14,27.356 13.3728,28 12.6,28" id="Fill-310"></path>
            <path d="M51.8007,33.607 C51.4423,33.607 51.0839,33.467 50.8095,33.187 C50.2635,32.627 50.2635,31.759 50.8095,31.199 L70.4095,11.599 C70.9555,11.067 71.8431,11.067 72.3891,11.599 C72.9351,12.159 72.9351,13.027 72.3891,13.587 L52.7891,33.187 C52.5147,33.467 52.1591,33.607 51.8007,33.607" id="Fill-311"></path>
            <path d="M71.4,28 C70.6244,28 70,27.356 70,26.6 L70,14 L57.4,14 C56.6244,14 56,13.356 56,12.6 C56,11.816 56.6244,11.2 57.4,11.2 L71.4,11.2 C72.1728,11.2 72.8,11.816 72.8,12.6 L72.8,26.6 C72.8,27.356 72.1728,28 71.4,28" id="Fill-312"></path>
            <path d="M12.6007,72.807 C12.2423,72.807 11.8839,72.667 11.6095,72.387 C11.0635,71.827 11.0635,70.959 11.6095,70.399 L31.2095,50.799 C31.7555,50.267 32.6431,50.267 33.1891,50.799 C33.7351,51.359 33.7351,52.227 33.1891,52.787 L13.5891,72.387 C13.3147,72.667 12.9591,72.807 12.6007,72.807" id="Fill-313"></path>
            <path d="M26.6,72.8 L12.6,72.8 C11.8244,72.8 11.2,72.156 11.2,71.4 L11.2,57.4 C11.2,56.616 11.8244,56 12.6,56 C13.3728,56 14,56.616 14,57.4 L14,70 L26.6,70 C27.3728,70 28,70.616 28,71.4 C28,72.156 27.3728,72.8 26.6,72.8" id="Fill-314"></path>
            <path d="M71.4007,72.807 C71.0423,72.807 70.6839,72.667 70.4095,72.387 L50.8095,52.787 C50.2635,52.227 50.2635,51.359 50.8095,50.799 C51.3555,50.267 52.2431,50.267 52.7891,50.799 L72.3891,70.399 C72.9351,70.959 72.9351,71.827 72.3891,72.387 C72.1147,72.667 71.7591,72.807 71.4007,72.807" id="Fill-315"></path>
            <path d="M71.4,72.8 L57.4,72.8 C56.6244,72.8 56,72.156 56,71.4 C56,70.616 56.6244,70 57.4,70 L70,70 L70,57.4 C70,56.616 70.6244,56 71.4,56 C72.1728,56 72.8,56.616 72.8,57.4 L72.8,71.4 C72.8,72.156 72.1728,72.8 71.4,72.8" id="Fill-316"></path>
        </g>
    </g>
</svg>