<?xml version="1.0" encoding="UTF-8"?>
<svg width="84px" height="84px" viewBox="0 0 84 84" version="1.1" xmlns="http://www.w3.org/2000/svg" xmlns:xlink="http://www.w3.org/1999/xlink">
    <!-- Generator: Sketch 52.2 (67145) - http://www.bohemiancoding.com/sketch -->
    <title>icon--location</title>
    <desc>Created with Sketch.</desc>
    <g id="icon--location" stroke="none" stroke-width="1" fill="none" fill-rule="evenodd">
        <path d="M42.4,14 C33.9076,14 27,20.916 27,29.4 C27,37.912 33.9076,44.8 42.4,44.8 C50.8924,44.8 57.8,37.912 57.8,29.4 C57.8,20.916 50.8924,14 42.4,14 L42.4,14 Z M42.4,47.6 C32.3648,47.6 24.2,39.452 24.2,29.4 C24.2,19.376 32.3648,11.2 42.4,11.2 C52.4352,11.2 60.6,19.376 60.6,29.4 C60.6,39.452 52.4352,47.6 42.4,47.6 L42.4,47.6 Z" id="Fill-2075" fill="#000000"></path>
        <path d="M42.4,14 C33.9076,14 27,20.916 27,29.4 C27,37.912 33.9076,44.8 42.4,44.8 C50.8924,44.8 57.8,37.912 57.8,29.4 C57.8,20.916 50.8924,14 42.4,14 L42.4,14 Z M42.4,47.6 C32.3648,47.6 24.2,39.452 24.2,29.4 C24.2,19.376 32.3648,11.2 42.4,11.2 C52.4352,11.2 60.6,19.376 60.6,29.4 C60.6,39.452 52.4352,47.6 42.4,47.6 L42.4,47.6 Z" id="Fill-2076" fill="#000000"></path>
        <path d="M42.4,2.8 C27.7336,2.8 15.8,14.728 15.8,29.4 C15.8,53.872 37.5896,76.076 42.4,80.696 C47.2104,76.076 69,53.844 69,29.4 C69,14.728 57.0664,2.8 42.4,2.8 L42.4,2.8 Z M42.4,84 C42.0668,84 41.7336,83.888 41.4676,83.664 C40.3056,82.628 13,57.988 13,29.4 C13,13.188 26.188,0 42.4,0 C58.612,0 71.8,13.188 71.8,29.4 C71.8,57.988 44.4944,82.628 43.3324,83.664 C43.0664,83.888 42.7332,84 42.4,84 L42.4,84 Z" id="Fill-2077" fill="#000000"></path>
    </g>
</svg>