<?xml version="1.0" encoding="UTF-8"?>
<svg width="84px" height="84px" viewBox="0 0 84 84" version="1.1" xmlns="http://www.w3.org/2000/svg" xmlns:xlink="http://www.w3.org/1999/xlink">
    <!-- Generator: Sketch 52.2 (67145) - http://www.bohemiancoding.com/sketch -->
    <title>icon--camera-rotate</title>
    <desc>Created with Sketch.</desc>
    <g id="icon--camera-rotate" stroke="none" stroke-width="1" fill="none" fill-rule="evenodd">
        <g id="Group" transform="translate(8.000000, 0.000000)" fill="#000000">
            <path d="M14.336,15.624 C14.224,15.624 14.14,15.624 14.056,15.596 C6.804,14.112 2.8,11.564 2.8,8.4 C2.8,2.884 14.952,0 26.964,0 C38.416,0 50.736,2.576 50.736,8.176 C50.736,11.34 46.732,13.888 39.48,15.372 C38.724,15.54 37.996,15.036 37.828,14.28 C37.688,13.524 38.164,12.796 38.92,12.628 C45.528,11.284 47.936,9.24 47.936,8.176 C47.936,5.936 39.956,2.8 26.964,2.8 C13.916,2.8 5.6,6.132 5.6,8.4 C5.6,9.464 8.008,11.508 14.616,12.852 C15.372,13.02 15.848,13.748 15.708,14.504 C15.568,15.176 14.98,15.624 14.336,15.624" id="Fill-7107"></path>
            <path d="M9.8,19.6 C9.408,19.6 9.016,19.46 8.736,19.124 C8.232,18.564 8.288,17.668 8.876,17.164 L12.656,13.832 L11.284,10.332 C11.004,9.604 11.368,8.792 12.096,8.512 C12.824,8.232 13.636,8.568 13.916,9.296 L15.624,13.72 C15.848,14.28 15.708,14.896 15.26,15.288 L10.724,19.264 C10.472,19.488 10.136,19.6 9.8,19.6" id="Fill-7108"></path>
            <path d="M7.98,47.488 C6.328,47.488 4.676,48.104 3.444,49.28 C3.024,49.672 2.8,50.204 2.8,50.764 C2.8,51.352 3.024,51.856 3.444,52.276 L29.512,77.448 C32.004,79.828 35.42,81.2 38.92,81.2 L47.488,81.2 C56.812,81.2 64.4,73.892 64.4,64.932 L64.344,45.92 C64.344,43.764 62.524,42 60.256,42 C58.128,42 55.944,43.344 55.944,45.556 L55.944,46.2 C55.944,46.984 55.328,47.6 54.544,47.6 C53.788,47.6 53.144,46.984 53.144,46.2 L53.144,42 C53.144,39.816 51.1,37.8 48.832,37.8 C46.592,37.8 44.744,39.564 44.744,41.72 L44.744,46.2 C44.744,46.984 44.128,47.6 43.344,47.6 C42.588,47.6 41.944,46.984 41.944,46.2 L41.944,38.164 C41.944,35.868 39.872,33.6 37.744,33.6 C35.56,33.6 33.544,35.616 33.544,37.8 L33.544,46.2 C33.544,46.984 32.928,47.6 32.144,47.6 C31.388,47.6 30.744,46.984 30.744,46.2 L30.744,21 C30.744,18.816 28.756,16.8 26.544,16.8 C24.36,16.8 22.344,18.816 22.344,21 L22.344,54.6 C22.344,55.16 22.036,55.636 21.532,55.888 C21.056,56.112 20.468,56.028 20.048,55.692 L11.676,48.664 C10.584,47.88 9.268,47.488 7.98,47.488 L7.98,47.488 Z M47.488,84 L38.92,84 C34.636,84 30.604,82.404 27.58,79.464 L1.512,54.292 C0.532,53.34 0,52.108 0,50.764 C0,49.448 0.532,48.216 1.512,47.264 C4.676,44.212 9.8,43.848 13.384,46.452 L19.544,51.604 L19.544,21 C19.544,17.276 22.82,14 26.544,14 C30.268,14 33.544,17.276 33.544,21 L33.544,32.284 C34.748,31.36 36.204,30.8 37.744,30.8 C40.88,30.8 43.736,33.348 44.548,36.484 C45.724,35.56 47.208,35 48.832,35 C52.136,35 55.076,37.492 55.776,40.572 C57.008,39.732 58.548,39.2 60.256,39.2 C64.064,39.2 67.144,42.224 67.144,45.92 L67.2,64.932 C67.2,75.46 58.352,84 47.488,84 L47.488,84 Z" id="Fill-7109"></path>
        </g>
    </g>
</svg>