<?xml version="1.0" encoding="UTF-8"?>
<svg width="84px" height="84px" viewBox="0 0 84 84" version="1.1" xmlns="http://www.w3.org/2000/svg" xmlns:xlink="http://www.w3.org/1999/xlink">
    <!-- Generator: Sketch 52.2 (67145) - http://www.bohemiancoding.com/sketch -->
    <title>icon--download</title>
    <desc>Created with Sketch.</desc>
    <g id="icon--download" stroke="none" stroke-width="1" fill="none" fill-rule="evenodd">
        <path d="M64.9488,61.8 L49,61.8 C48.2272,61.8 47.6,61.184 47.6,60.4 C47.6,59.644 48.2272,59 49,59 L64.9488,59 C73.9088,59 81.2,51.776 81.2,42.9 C81.2,34.024 73.9088,26.8 64.9488,26.8 C64.2516,26.8 63.3864,26.324 63.2856,25.624 C61.6616,14.34 51.7524,5.8 40.236,5.8 C27.3784,5.8 16.9204,16.16 16.9204,28.9 C16.9204,29.908 17.0072,30.972 17.192,32.232 C17.2508,32.652 17.1276,33.072 16.8532,33.38 C16.576,33.688 16.1812,33.8 15.7668,33.828 C15.708,33.828 15.5176,33.828 15.4588,33.8 C8.5064,33.8 2.8,39.456 2.8,46.4 C2.8,53.344 8.5064,59 15.5204,59 L32.2,59 C32.9728,59 33.6,59.644 33.6,60.4 C33.6,61.184 32.9728,61.8 32.2,61.8 L15.5204,61.8 C6.9636,61.8 0,54.912 0,46.4 C0,38.336 6.272,31.728 14.2296,31.056 C14.1568,30.3 14.1204,29.6 14.1204,28.9 C14.1204,14.62 25.8356,3 40.236,3 C52.7352,3 63.546,11.988 65.8616,24.056 C76.076,24.6412 84,32.876 84,42.9 C84,53.3132 75.4544,61.8 64.9488,61.8" id="Fill-3115" fill="#000000"></path>
        <path d="M40.6,81.4 C40.4208,81.4 40.2388,81.372 40.0652,81.316 C39.5416,81.092 39.2,80.588 39.2,80 L39.2,43.6 C39.2,42.844 39.8272,42.2 40.6,42.2 C41.3728,42.2 42,42.844 42,43.6 L42,76.64 L46.6088,72.02 C47.1576,71.46 48.0424,71.46 48.5912,72.02 C49.1372,72.552 49.1372,73.448 48.5912,74.008 L41.5912,81.008 C41.3224,81.26 40.964,81.4 40.6,81.4" id="Fill-3116" fill="#000000"></path>
        <path d="M40.6,81.4 C40.2416,81.4 39.8832,81.26 39.6088,81.008 L32.6088,74.008 C32.0628,73.448 32.0628,72.552 32.6088,72.02 C33.1576,71.46 34.0424,71.46 34.5912,72.02 L41.5912,79.02 C42.1372,79.552 42.1372,80.448 41.5912,81.008 C41.3168,81.26 40.9584,81.4 40.6,81.4" id="Fill-3117" fill="#000000"></path>
    </g>
</svg>