<?xml version="1.0" encoding="UTF-8"?>
<svg width="84px" height="84px" viewBox="0 0 84 84" version="1.1" xmlns="http://www.w3.org/2000/svg" xmlns:xlink="http://www.w3.org/1999/xlink">
    <!-- Generator: Sketch 52.2 (67145) - http://www.bohemiancoding.com/sketch -->
    <title>icon--run</title>
    <desc>Created with Sketch.</desc>
    <g id="icon--run" stroke="none" stroke-width="1" fill="none" fill-rule="evenodd">
        <g id="Group-5" fill="#000000">
            <path d="M19.054,2.8 C10.0912,2.8 2.8,10.0912 2.8,19.054 L2.8,64.946 C2.8,73.9088 10.0912,81.2 19.054,81.2 L64.946,81.2 C73.9088,81.2 81.2,73.9088 81.2,64.946 L81.2,19.054 C81.2,10.0912 73.9088,2.8 64.946,2.8 L19.054,2.8 L19.054,2.8 Z M64.946,84 L19.054,84 C8.5484,84 0,75.4516 0,64.946 L0,19.054 C0,8.5484 8.5484,0 19.054,0 L64.946,0 C75.4516,0 84,8.5484 84,19.054 L84,64.946 C84,75.4516 75.4516,84 64.946,84 L64.946,84 Z" id="Fill-532"></path>
            <path d="M33.6,31.6658892 L33.6,52.0750892 L51.7412,40.7350892 L33.6,31.6658892 L33.6,31.6658892 Z M32.2,56.0006892 C31.9676,56.0006892 31.7324,55.9418892 31.5224,55.8270892 C31.0772,55.5778892 30.8,55.1102892 30.8,54.6006892 L30.8,29.4006892 C30.8,28.9162892 31.052,28.4626892 31.4636,28.2106892 C31.8752,27.9530892 32.3904,27.9306892 32.8272,28.1490892 L55.2272,39.3490892 C55.6808,39.5758892 55.9748,40.0266892 55.9972,40.5334892 C56.0224,41.0402892 55.7704,41.5190892 55.342,41.7878892 L32.942,55.7878892 C32.718,55.9306892 32.4576,56.0006892 32.2,56.0006892 L32.2,56.0006892 Z" id="Fill-533"></path>
        </g>
    </g>
</svg>