<?xml version="1.0" encoding="UTF-8"?>
<svg width="84px" height="84px" viewBox="0 0 84 84" version="1.1" xmlns="http://www.w3.org/2000/svg" xmlns:xlink="http://www.w3.org/1999/xlink">
    <!-- Generator: Sketch 52.2 (67145) - http://www.bohemiancoding.com/sketch -->
    <title>icon--on-off</title>
    <desc>Created with Sketch.</desc>
    <g id="icon--on-off" stroke="none" stroke-width="1" fill="none" fill-rule="evenodd">
        <path d="M43.5237,28.9325 C43.5237,29.7609271 42.8521271,30.4325 42.0237,30.4325 C41.1952729,30.4325 40.5237,29.7609271 40.5237,28.9325 L40.5237,1.4995 C40.5237,0.671072875 41.1952729,-0.0005 42.0237,-0.0005 C42.8521271,-0.0005 43.5237,0.671072875 43.5237,1.4995 L43.5237,28.9325 Z" id="Stroke-1" fill="#000000" fill-rule="nonzero"></path>
        <path d="M26.0122823,13.7708657 C26.7293325,13.3559796 27.6469482,13.600932 28.0618343,14.3179823 C28.4767204,15.0350325 28.231768,15.9526482 27.5147177,16.3675343 C18.6024714,21.5241706 12.9995,31.0222096 12.9995,41.5002 C12.9995,57.5289199 25.9940742,70.5232 42.0235,70.5232 C58.0529258,70.5232 71.0475,57.5289199 71.0475,41.5002 C71.0475,31.0222096 65.4445286,21.5241706 56.5322823,16.3675343 C55.815232,15.9526482 55.5702796,15.0350325 55.9851657,14.3179823 C56.4000518,13.600932 57.3176675,13.3559796 58.0347177,13.7708657 C67.8642325,19.4582346 74.0475,29.9399793 74.0475,41.5002 C74.0475,59.1857894 59.7097649,73.5232 42.0235,73.5232 C24.3372351,73.5232 9.9995,59.1857894 9.9995,41.5002 C9.9995,29.9399793 16.1827675,19.4582346 26.0122823,13.7708657 Z" id="Stroke-3" fill="#000000" fill-rule="nonzero"></path>
    </g>
</svg>