<?xml version="1.0" encoding="UTF-8"?>
<svg width="84px" height="84px" viewBox="0 0 84 84" version="1.1" xmlns="http://www.w3.org/2000/svg" xmlns:xlink="http://www.w3.org/1999/xlink">
    <!-- Generator: Sketch 52.2 (67145) - http://www.bohemiancoding.com/sketch -->
    <title>icon--undo</title>
    <desc>Created with Sketch.</desc>
    <g id="icon--undo" stroke="none" stroke-width="1" fill="none" fill-rule="evenodd">
        <g id="Group" transform="translate(6.000000, 0.000000)" fill="#0A0B09">
            <path d="M31.2144,84 C20.1012,84 9.6572,79.632 1.8032,71.68 C1.26,71.12 1.2656,70.252 1.8144,69.692 C2.366,69.16 3.2536,69.16 3.794,69.72 C11.116,77.112 20.8572,81.2 31.2144,81.2 C41.5688,81.2 51.31,77.112 58.6348,69.72 C65.9624,62.3 70,52.472 70,42 C70,31.528 65.9624,21.672 58.6348,14.28 C51.31,6.86 41.5688,2.8 31.2116,2.8 C20.8572,2.8 11.1188,6.86 3.794,14.28 C3.2536,14.812 2.366,14.812 1.8144,14.28 C1.2656,13.72 1.26,12.852 1.8032,12.292 C9.66,4.368 20.104,0 31.2116,0 C42.322,0 52.7688,4.368 60.6256,12.292 C68.4768,20.216 72.8,30.772 72.8,42 C72.8,53.2 68.4768,63.756 60.6256,71.68 C52.7688,79.632 42.3248,84 31.2144,84" id="Fill-7409"></path>
            <path d="M15.4,16.8 L1.4,16.8 C0.6244,16.8 0,16.156 0,15.4 L0,1.4 C0,0.616 0.6244,0 1.4,0 C2.1728,0 2.8,0.616 2.8,1.4 L2.8,14 L15.4,14 C16.1728,14 16.8,14.616 16.8,15.4 C16.8,16.156 16.1728,16.8 15.4,16.8" id="Fill-7410"></path>
        </g>
    </g>
</svg>