<?xml version="1.0" encoding="UTF-8"?>
<svg width="84px" height="84px" viewBox="0 0 84 84" version="1.1" xmlns="http://www.w3.org/2000/svg" xmlns:xlink="http://www.w3.org/1999/xlink">
    <!-- Generator: Sketch 52.2 (67145) - http://www.bohemiancoding.com/sketch -->
    <title>icon--feedrate</title>
    <desc>Created with Sketch.</desc>
    <g id="icon--feedrate" stroke="none" stroke-width="1" fill="none" fill-rule="evenodd">
        <g id="Group-2" transform="translate(0.000000, 3.000000)" fill="#000000">
            <path d="M42,14.4827586 C26.8278621,14.4827586 14.4827586,26.8278621 14.4827586,42 C14.4827586,57.1721379 26.8249655,69.5172414 41.9971034,69.5172414 C57.1721379,69.5172414 69.5172414,57.1721379 69.5172414,41.9971034 C69.5143448,26.8249655 57.1721379,14.4827586 42,14.4827586 L42,14.4827586 Z M41.9971034,72.4137931 C25.2289655,72.4137931 11.5862069,58.7710345 11.5862069,42 C11.5862069,25.2318621 25.2289655,11.5862069 42,11.5862069 C58.7681379,11.5862069 72.4108966,25.2289655 72.4137931,41.9971034 C72.4137931,58.7681379 58.7681379,72.4137931 41.9971034,72.4137931 L41.9971034,72.4137931 Z" id="Fill-509"></path>
            <path d="M55.0344828,28.9655172 C53.4384828,28.9655172 52.137931,30.266069 52.137931,31.862069 C52.137931,33.458069 53.4384828,34.7586207 55.0344828,34.7586207 C56.6304828,34.7586207 57.9310345,33.458069 57.9310345,31.862069 C57.9310345,30.266069 56.6304828,28.9655172 55.0344828,28.9655172 L55.0344828,28.9655172 Z M55.0344828,37.6551724 C51.8395862,37.6551724 49.2413793,35.0569655 49.2413793,31.862069 C49.2413793,28.6671724 51.8395862,26.0689655 55.0344828,26.0689655 C58.2293793,26.0689655 60.8275862,28.6671724 60.8275862,31.862069 C60.8275862,35.0569655 58.2293793,37.6551724 55.0344828,37.6551724 L55.0344828,37.6551724 Z" id="Fill-510"></path>
            <path d="M42,5.79310345 C41.2005517,5.79310345 40.5517241,5.14427586 40.5517241,4.34482759 L40.5517241,1.44827586 C40.5517241,0.648827586 41.2005517,0 42,0 C42.7994483,0 43.4482759,0.648827586 43.4482759,1.44827586 L43.4482759,4.34482759 C43.4482759,5.14427586 42.7994483,5.79310345 42,5.79310345" id="Fill-511"></path>
            <path d="M32.2531034,7.07627586 C31.6129655,7.07627586 31.0278621,6.65048276 30.854069,6.00455172 L30.1067586,3.20358621 C29.8982069,2.4302069 30.3587586,1.63655172 31.1292414,1.43089655 C31.8997241,1.22524138 32.6962759,1.68289655 32.901931,2.45337931 L33.6521379,5.25434483 C33.8577931,6.02482759 33.4001379,6.82137931 32.6296552,7.02703448 C32.5022069,7.0617931 32.3776552,7.07627586 32.2531034,7.07627586" id="Fill-512"></path>
            <path d="M23.1724138,10.8388966 C22.6742069,10.8388966 22.1846897,10.5782069 21.9182069,10.1147586 L20.469931,7.60344828 C20.0702069,6.91117241 20.3077241,6.02482759 21,5.62510345 C21.6951724,5.22537931 22.5786207,5.4657931 22.9783448,6.15806897 L24.4266207,8.66937931 C24.8263448,9.36165517 24.5888276,10.248 23.8965517,10.6448276 C23.6677241,10.778069 23.4186207,10.8388966 23.1724138,10.8388966" id="Fill-513"></path>
            <path d="M15.3748966,16.8231724 C15.0041379,16.8231724 14.6304828,16.6812414 14.3495172,16.3973793 L12.3016552,14.3466207 C11.7368276,13.7788966 11.7368276,12.8635862 12.3016552,12.2987586 C12.8664828,11.733931 13.7846897,11.733931 14.3524138,12.2987586 L16.4002759,14.3495172 C16.9622069,14.9172414 16.9622069,15.8325517 16.3973793,16.4002759 C16.1135172,16.6812414 15.7427586,16.8231724 15.3748966,16.8231724" id="Fill-514"></path>
            <path d="M9.38772414,24.6206897 C9.14151724,24.6206897 8.89241379,24.5598621 8.66358621,24.4266207 L6.15517241,22.9754483 C5.46289655,22.5757241 5.22537931,21.6893793 5.628,20.9942069 C6.02482759,20.301931 6.91117241,20.0644138 7.60634483,20.4670345 L10.1147586,21.9182069 C10.8070345,22.317931 11.0445517,23.2042759 10.641931,23.8994483 C10.3754483,24.3628966 9.88882759,24.6206897 9.38772414,24.6206897" id="Fill-515"></path>
            <path d="M77.1148966,63.7241379 C76.8715862,63.7241379 76.6224828,63.6633103 76.3907586,63.530069 L73.8852414,62.0788966 C73.1929655,61.6791724 72.9554483,60.7928276 73.358069,60.0976552 C73.752,59.4082759 74.6383448,59.1649655 75.3364138,59.5704828 L77.8448276,61.0216552 C78.5342069,61.4213793 78.7717241,62.3077241 78.372,63.0028966 C78.1026207,63.4663448 77.616,63.7241379 77.1148966,63.7241379" id="Fill-516"></path>
            <path d="M5.628,33.7042759 C5.50344828,33.7042759 5.376,33.6868966 5.25144828,33.6550345 L2.45337931,32.901931 C1.68,32.6933793 1.22234483,31.8997241 1.43089655,31.1263448 C1.63655172,30.3558621 2.436,29.8953103 3.20358621,30.1038621 L6.00455172,30.8569655 C6.77503448,31.0655172 7.23558621,31.8562759 7.02703448,32.6325517 C6.85324138,33.2784828 6.26813793,33.7042759 5.628,33.7042759" id="Fill-517"></path>
            <path d="M81.170069,53.9424828 C81.0455172,53.9424828 80.918069,53.928 80.7935172,53.8932414 L77.9954483,53.1401379 C77.222069,52.9344828 76.7644138,52.137931 76.9729655,51.3645517 C77.1815172,50.594069 77.9838621,50.1393103 78.7485517,50.342069 L81.5437241,51.0951724 C82.3171034,51.3037241 82.7747586,52.0973793 82.5662069,52.8707586 C82.3924138,53.5166897 81.8073103,53.9424828 81.170069,53.9424828" id="Fill-518"></path>
            <path d="M4.34482759,43.4482759 L1.44537931,43.4482759 C0.645931034,43.4482759 0,42.7994483 0,42 C0,41.2005517 0.645931034,40.5517241 1.44537931,40.5517241 L4.34482759,40.5517241 C5.14427586,40.5517241 5.79310345,41.2005517 5.79310345,42 C5.79310345,42.7994483 5.14427586,43.4482759 4.34482759,43.4482759" id="Fill-519"></path>
            <path d="M82.5517241,43.4482759 L82.5488276,43.4482759 L79.6522759,43.4453793 C78.8528276,43.4453793 78.204,42.7965517 78.2068966,41.9971034 C78.2068966,41.1976552 78.8557241,40.545931 79.6522759,40.545931 L79.6551724,40.545931 L82.5517241,40.5517241 C83.3511724,40.5546207 84,41.2005517 83.9971034,42.0028966 C83.9971034,42.7994483 83.3482759,43.4482759 82.5517241,43.4482759" id="Fill-520"></path>
            <path d="M2.82703448,53.9453793 C2.1897931,53.9453793 1.60468966,53.5166897 1.43089655,52.8736552 C1.22234483,52.1002759 1.68,51.3066207 2.45337931,51.098069 L5.25144828,50.3449655 C6.02482759,50.1335172 6.81848276,50.594069 7.02703448,51.3674483 C7.23558621,52.1408276 6.77503448,52.9344828 6.00455172,53.1430345 L3.20358621,53.8961379 C3.07903448,53.9308966 2.95158621,53.9453793 2.82703448,53.9453793" id="Fill-521"></path>
            <path d="M78.3691034,33.7013793 C77.7289655,33.7013793 77.1438621,33.2726897 76.970069,32.6267586 C76.7644138,31.8533793 77.2249655,31.0597241 77.9954483,30.854069 L80.7964138,30.1038621 C81.5611034,29.8982069 82.3605517,30.3587586 82.5662069,31.1321379 C82.7747586,31.9055172 82.3142069,32.6991724 81.5408276,32.9048276 L78.7427586,33.6521379 C78.6182069,33.684 78.4936552,33.7013793 78.3691034,33.7013793" id="Fill-522"></path>
            <path d="M6.8822069,63.7270345 C6.38110345,63.7270345 5.89448276,63.4692414 5.628,63.0057931 C5.22537931,62.3106207 5.46289655,61.4271724 6.15517241,61.0245517 L8.66358621,59.5733793 C9.35586207,59.1707586 10.2451034,59.4082759 10.641931,60.1034483 C11.0445517,60.7957241 10.8070345,61.682069 10.1147586,62.0817931 L7.60634483,63.5329655 C7.37751724,63.6662069 7.12841379,63.7270345 6.8822069,63.7270345" id="Fill-523"></path>
            <path d="M74.6093793,24.6206897 C74.1082759,24.6206897 73.6216552,24.36 73.3522759,23.8965517 C72.9525517,23.2013793 73.1929655,22.317931 73.8852414,21.9182069 L76.3936552,20.4728276 C77.0888276,20.0702069 77.9751724,20.3135172 78.372,21.0057931 C78.7717241,21.698069 78.5342069,22.5815172 77.841931,22.9812414 L75.3306207,24.4266207 C75.1017931,24.5598621 74.8526897,24.6206897 74.6093793,24.6206897" id="Fill-524"></path>
            <path d="M68.6222069,16.8231724 C68.2514483,16.8231724 67.8806897,16.6812414 67.5968276,16.3973793 C67.0348966,15.8296552 67.0348966,14.9143448 67.5997241,14.3495172 L69.6504828,12.3016552 C70.2182069,11.7397241 71.1364138,11.7368276 71.6983448,12.3045517 C72.2631724,12.8722759 72.2631724,13.7904828 71.6954483,14.3553103 L69.6446897,16.4002759 C69.3637241,16.6812414 68.9929655,16.8231724 68.6222069,16.8231724" id="Fill-525"></path>
            <path d="M60.8217931,10.8388966 C60.5784828,10.8388966 60.3264828,10.778069 60.0976552,10.6448276 C59.4053793,10.2451034 59.1707586,9.35875862 59.5704828,8.66648276 L61.0216552,6.16096552 C61.4242759,5.4657931 62.3106207,5.22827586 63,5.63089655 C63.6951724,6.03351724 63.9297931,6.91986207 63.530069,7.61213793 L62.0788966,10.1176552 C61.8095172,10.5811034 61.3228966,10.8388966 60.8217931,10.8388966" id="Fill-526"></path>
            <path d="M51.744,7.07627586 C51.6194483,7.07627586 51.492,7.0617931 51.3645517,7.02703448 C50.594069,6.81848276 50.1364138,6.02482759 50.3449655,5.25144828 L51.098069,2.45627586 C51.3066207,1.6857931 52.1002759,1.22524138 52.8736552,1.43668966 C53.6470345,1.64524138 54.1046897,2.43889655 53.8961379,3.21227586 L53.1430345,6.00744828 C52.9663448,6.65048276 52.3841379,7.07627586 51.744,7.07627586" id="Fill-527"></path>
        </g>
    </g>
</svg>