<?xml version="1.0" encoding="UTF-8"?>
<svg width="84px" height="84px" viewBox="0 0 84 84" version="1.1" xmlns="http://www.w3.org/2000/svg" xmlns:xlink="http://www.w3.org/1999/xlink">
    <!-- Generator: Sketch 52.2 (67145) - http://www.bohemiancoding.com/sketch -->
    <title>icon--home</title>
    <desc>Created with Sketch.</desc>
    <g id="icon--home" stroke="none" stroke-width="1" fill="none" fill-rule="evenodd">
        <path d="M13.7298246,81.2 L68.6491228,81.2 L68.6491228,40.6 C68.6491228,39.8272 69.2642189,39.2 70.0221053,39.2 L77.713553,39.2 L69.0472877,30.2736 C68.791913,30.0104 68.6491228,29.6576 68.6491228,29.288 L68.6491228,2.8 L57.6652632,2.8 L57.6652632,15.148 C57.6652632,15.7164 57.3275095,16.2288 56.814014,16.4444 C56.2977726,16.6516 55.7101361,16.534 55.3174632,16.1336 L43.1665684,3.6204 C42.1258477,2.5676 40.2585916,2.5648 39.2041411,3.6288 L4.66539439,39.2 L12.3568421,39.2 C13.1147284,39.2 13.7298246,39.8272 13.7298246,40.6 L13.7298246,81.2 Z M70.0221053,84 L12.3568421,84 C11.5989558,84 10.9838596,83.3728 10.9838596,82.6 L10.9838596,42 L1.37298246,42 C0.818297544,42 0.31853193,41.6612 0.107092632,41.1376 C-0.107092632,40.6168 0.00823789474,40.0176 0.398164912,39.6144 L37.2599979,1.652 C39.366153,-0.4928 43.0210323,-0.4788 45.1107116,1.6436 L54.9192982,11.7432 L54.9192982,1.4 C54.9192982,0.6272 55.5343944,0 56.2922807,0 L70.0221053,0 C70.7799916,0 71.3950877,0.6272 71.3950877,1.4 L71.3950877,28.7112 L81.9807825,39.6144 C82.3707095,40.0176 82.48604,40.6168 82.2718547,41.1376 C82.0604154,41.6612 81.5606498,42 81.0059649,42 L71.3950877,42 L71.3950877,82.6 C71.3950877,83.3728 70.7799916,84 70.0221053,84 L70.0221053,84 Z" id="Fill-5" fill="#000000"></path>
    </g>
</svg>