<?xml version="1.0" encoding="UTF-8"?>
<svg width="84px" height="84px" viewBox="0 0 84 84" version="1.1" xmlns="http://www.w3.org/2000/svg" xmlns:xlink="http://www.w3.org/1999/xlink">
    <!-- Generator: Sketch 52.2 (67145) - http://www.bohemiancoding.com/sketch -->
    <title>icon--eject</title>
    <desc>Created with Sketch.</desc>
    <g id="icon--eject" stroke="none" stroke-width="1" fill="none" fill-rule="evenodd">
        <g id="Group-7" fill="#000000">
            <path d="M28.98,47.6 L52.22,47.6 L40.6,26.684 L28.98,47.6 L28.98,47.6 Z M54.6,50.4 L26.6,50.4 C26.1044,50.4 25.6452,50.1368 25.3932,49.7112 C25.1412,49.2828 25.1356,48.7536 25.3764,48.3196 L39.3764,23.1196 C39.8692,22.232 41.3308,22.232 41.8236,23.1196 L55.8236,48.3196 C56.0644,48.7536 56.0588,49.2828 55.8068,49.7112 C55.5548,50.1368 55.0956,50.4 54.6,50.4 L54.6,50.4 Z" id="Fill-492"></path>
            <path d="M54.6,56 L26.6,56 C25.8272,56 25.2,55.3728 25.2,54.6 C25.2,53.8272 25.8272,53.2 26.6,53.2 L54.6,53.2 C55.3728,53.2 56,53.8272 56,54.6 C56,55.3728 55.3728,56 54.6,56" id="Fill-493"></path>
            <path d="M19.054,2.8 C10.0912,2.8 2.8,10.0912 2.8,19.054 L2.8,64.946 C2.8,73.9088 10.0912,81.2 19.054,81.2 L64.946,81.2 C73.9088,81.2 81.2,73.9088 81.2,64.946 L81.2,19.054 C81.2,10.0912 73.9088,2.8 64.946,2.8 L19.054,2.8 L19.054,2.8 Z M64.946,84 L19.054,84 C8.5484,84 0,75.4516 0,64.946 L0,19.054 C0,8.5484 8.5484,0 19.054,0 L64.946,0 C75.4516,0 84,8.5484 84,19.054 L84,64.946 C84,75.4516 75.4516,84 64.946,84 L64.946,84 Z" id="Fill-494"></path>
        </g>
    </g>
</svg>