<?xml version="1.0" encoding="UTF-8"?>
<svg width="84px" height="84px" viewBox="0 0 84 84" version="1.1" xmlns="http://www.w3.org/2000/svg" xmlns:xlink="http://www.w3.org/1999/xlink">
    <!-- Generator: Sketch 52.2 (67145) - http://www.bohemiancoding.com/sketch -->
    <title>icon--view-top</title>
    <desc>Created with Sketch.</desc>
    <defs>
        <polygon id="path-1" points="0 0.702545455 81.3864545 0.702545455 81.3864545 83.0454545 0 83.0454545"></polygon>
    </defs>
    <g id="icon--view-top" stroke="none" stroke-width="1" fill="none" fill-rule="evenodd">
        <g id="Group-28">
            <path d="M39.6248045,56.3181818 L37.2384409,56.3181818 C36.5798045,56.3181818 36.0452591,56.8527273 36.0452591,57.5113636 C36.0452591,58.17 36.5798045,58.7045455 37.2384409,58.7045455 L39.6248045,58.7045455 C40.2834409,58.7045455 40.8179864,58.17 40.8179864,57.5113636 C40.8179864,56.8527273 40.2834409,56.3181818 39.6248045,56.3181818" id="Fill-1" fill="#000000"></path>
            <path d="M31.5111682,56.3181818 L29.1248045,56.3181818 C28.4661682,56.3181818 27.9316227,56.8527273 27.9316227,57.5113636 C27.9316227,58.17 28.4661682,58.7045455 29.1248045,58.7045455 L31.5111682,58.7045455 C32.1698045,58.7045455 32.70435,58.17 32.70435,57.5113636 C32.70435,56.8527273 32.1698045,56.3181818 31.5111682,56.3181818" id="Fill-3" fill="#000000"></path>
            <path d="M72.07935,56.3181818 L69.6929864,56.3181818 C69.03435,56.3181818 68.4998045,56.8527273 68.4998045,57.5113636 C68.4998045,58.17 69.03435,58.7045455 69.6929864,58.7045455 L72.07935,58.7045455 C72.7379864,58.7045455 73.2725318,58.17 73.2725318,57.5113636 C73.2725318,56.8527273 72.7379864,56.3181818 72.07935,56.3181818" id="Fill-5" fill="#000000"></path>
            <path d="M47.7384409,56.3181818 L45.3520773,56.3181818 C44.6934409,56.3181818 44.1588955,56.8527273 44.1588955,57.5113636 C44.1588955,58.17 44.6934409,58.7045455 45.3520773,58.7045455 L47.7384409,58.7045455 C48.3970773,58.7045455 48.9316227,58.17 48.9316227,57.5113636 C48.9316227,56.8527273 48.3970773,56.3181818 47.7384409,56.3181818" id="Fill-7" fill="#000000"></path>
            <path d="M63.9657136,56.3181818 L61.57935,56.3181818 C60.9207136,56.3181818 60.3861682,56.8527273 60.3861682,57.5113636 C60.3861682,58.17 60.9207136,58.7045455 61.57935,58.7045455 L63.9657136,58.7045455 C64.62435,58.7045455 65.1588955,58.17 65.1588955,57.5113636 C65.1588955,56.8527273 64.62435,56.3181818 63.9657136,56.3181818" id="Fill-9" fill="#000000"></path>
            <path d="M24.82935,55.8712636 C24.1821682,55.8712636 23.6552591,56.3876727 23.6361682,57.0300818 L22.3150773,58.4046273 C21.8588045,58.8799909 21.8740773,59.6350364 22.3484864,60.0922636 C22.5804409,60.3146727 22.8782591,60.4254 23.1760773,60.4254 C23.4891682,60.4254 23.8013045,60.3022636 24.0361227,60.0588545 L25.6893955,58.3378091 C25.9032136,58.1163545 26.0225318,57.8194909 26.0225318,57.5111727 L26.0225318,57.0644455 C26.0225318,56.4058091 25.4879864,55.8712636 24.82935,55.8712636" id="Fill-11" fill="#000000"></path>
            <path d="M12.7246636,68.3843045 L11.0713909,70.10535 C10.6141636,70.5807136 10.6294364,71.3357591 11.1048,71.7920318 C11.3358,72.0144409 11.6336182,72.1251682 11.9314364,72.1251682 C12.2445273,72.1251682 12.5576182,72.0029864 12.7914818,71.7586227 L14.4457091,70.0375773 C14.9019818,69.5622136 14.8867091,68.8071682 14.4123,68.3508955 C13.9359818,67.8936682 13.1818909,67.9089409 12.7246636,68.3843045" id="Fill-13" fill="#000000"></path>
            <path d="M7.1022,74.2341409 L5.44892727,75.9551864 C4.99265455,76.43055 5.00697273,77.1855955 5.48233636,77.6418682 C5.71333636,77.8642773 6.01115455,77.9750045 6.30897273,77.9750045 C6.62206364,77.9750045 6.93515455,77.8528227 7.16901818,77.6084591 L8.82324545,75.8874136 C9.27951818,75.41205 9.26424545,74.6570045 8.78983636,74.2007318 C8.31351818,73.7435045 7.55942727,73.7587773 7.1022,74.2341409" id="Fill-15" fill="#000000"></path>
            <path d="M18.3465545,62.5343727 L16.6932818,64.2554182 C16.2370091,64.7307818 16.2513273,65.4858273 16.7266909,65.9421 C16.9576909,66.1645091 17.2555091,66.2752364 17.5533273,66.2752364 C17.8664182,66.2752364 18.1795091,66.1530545 18.4133727,65.9086909 L20.0676,64.1876455 C20.5238727,63.7122818 20.5086,62.9572364 20.0341909,62.5009636 C19.5578727,62.0437364 18.8028273,62.0580545 18.3465545,62.5343727" id="Fill-17" fill="#000000"></path>
            <path d="M24.82935,47.7576273 C24.1707136,47.7576273 23.6361682,48.2921727 23.6361682,48.9508091 L23.6361682,51.3371727 C23.6361682,51.9958091 24.1707136,52.5303545 24.82935,52.5303545 C25.4879864,52.5303545 26.0225318,51.9958091 26.0225318,51.3371727 L26.0225318,48.9508091 C26.0225318,48.2921727 25.4879864,47.7576273 24.82935,47.7576273" id="Fill-19" fill="#000000"></path>
            <path d="M24.82935,31.5303545 C24.1707136,31.5303545 23.6361682,32.0649 23.6361682,32.7235364 L23.6361682,35.1099 C23.6361682,35.7685364 24.1707136,36.3030818 24.82935,36.3030818 C25.4879864,36.3030818 26.0225318,35.7685364 26.0225318,35.1099 L26.0225318,32.7235364 C26.0225318,32.0649 25.4879864,31.5303545 24.82935,31.5303545" id="Fill-21" fill="#000000"></path>
            <path d="M24.82935,39.6439909 C24.1707136,39.6439909 23.6361682,40.1785364 23.6361682,40.8371727 L23.6361682,43.2235364 C23.6361682,43.8821727 24.1707136,44.4167182 24.82935,44.4167182 C25.4879864,44.4167182 26.0225318,43.8821727 26.0225318,43.2235364 L26.0225318,40.8371727 C26.0225318,40.1785364 25.4879864,39.6439909 24.82935,39.6439909" id="Fill-23" fill="#000000"></path>
            <g id="Group-27" transform="translate(0.000000, 0.252191)">
                <mask id="mask-2" fill="white">
                    <use xlink:href="#path-1"></use>
                </mask>
                <g id="Clip-26"></g>
                <path d="M57.75,26.9691545 L79.0000909,4.85901818 L79.0000909,56.0656091 L77.8069091,56.0656091 C77.1473182,56.0656091 76.6137273,56.6001545 76.6137273,57.2587909 C76.6137273,57.7942909 76.9726364,58.2314727 77.4585,58.3822909 L57.75,78.8887909 L57.75,26.9691545 Z M2.38636364,27.6822 L55.3636364,27.6822 L55.3636364,56.0656091 L53.466,56.0656091 C52.8064091,56.0656091 52.2728182,56.6001545 52.2728182,57.2587909 C52.2728182,57.9183818 52.8064091,58.4519727 53.466,58.4519727 L55.3636364,58.4519727 L55.3636364,80.6594727 L2.38636364,80.6594727 L2.38636364,27.6822 Z M81.3864545,57.2587909 L81.3864545,1.89515455 C81.3864545,1.87415455 81.3778636,1.85410909 81.3769091,1.83310909 C81.3740455,1.77297273 81.3625909,1.71474545 81.3501818,1.65460909 C81.3377727,1.59733636 81.3263182,1.54101818 81.3062727,1.48660909 C81.2986364,1.46751818 81.2986364,1.44651818 81.291,1.42838182 C81.2757273,1.39306364 81.2499545,1.36538182 81.2327727,1.33292727 C81.2031818,1.27947273 81.1755,1.22888182 81.1392273,1.18115455 C81.1039091,1.13438182 81.0638182,1.09429091 81.0218182,1.05324545 C80.9817273,1.01315455 80.9416364,0.974018182 80.8958182,0.939654545 C80.8452273,0.903381818 80.7927273,0.8757 80.7373636,0.847063636 C80.703,0.828927273 80.6753182,0.803154545 80.6390455,0.788836364 C80.6218636,0.782154545 80.6046818,0.782154545 80.5884545,0.777381818 C80.5302273,0.756381818 80.4700909,0.745881818 80.409,0.734427273 C80.3536364,0.723927273 80.2992273,0.712472727 80.2438636,0.709609091 C80.2266818,0.709609091 80.2104545,0.701972727 80.1932727,0.701972727 L24.8296364,0.701972727 C24.5041364,0.701972727 24.1939091,0.834654545 23.9686364,1.06851818 L0.333136364,25.6614273 C0.238636364,25.7607 0.168954545,25.8742909 0.113590909,25.9945636 C0.0983181818,26.0279727 0.0916363636,26.0632909 0.0792272727,26.0976545 C0.042,26.2017 0.021,26.3076545 0.0143181818,26.4174273 C0.0133636364,26.4422455 0,26.4632455 0,26.4890182 L0,81.8526545 C0,82.5112909 0.534545455,83.0458364 1.19318182,83.0458364 L56.5568182,83.0458364 C56.8909091,83.0458364 57.1906364,82.9074273 57.4073182,82.6859727 C57.4101818,82.6831091 57.414,82.6821545 57.4168636,82.6792909 L81.0533182,58.0863818 C81.1067727,58.0310182 81.1354091,57.9594273 81.1764545,57.8964273 C81.2155909,57.8343818 81.2661818,57.7818818 81.2948182,57.7131545 C81.354,57.5699727 81.3864545,57.4162909 81.3864545,57.2587909 Z" id="Fill-25" fill="#000000" mask="url(#mask-2)"></path>
            </g>
        </g>
    </g>
</svg>