<?xml version="1.0" encoding="UTF-8"?>
<svg width="84px" height="84px" viewBox="0 0 84 84" version="1.1" xmlns="http://www.w3.org/2000/svg" xmlns:xlink="http://www.w3.org/1999/xlink">
    <!-- Generator: Sketch 52.2 (67145) - http://www.bohemiancoding.com/sketch -->
    <title>icon--view-left</title>
    <desc>Created with Sketch.</desc>
    <defs>
        <polygon id="path-1" points="0 0.702545455 81.3862636 0.702545455 81.3862636 83.0452636 0 83.0452636"></polygon>
    </defs>
    <g id="icon--view-left" stroke="none" stroke-width="1" fill="none" fill-rule="evenodd">
        <g id="Group-28">
            <path d="M52.2614591,56.3184682 L49.8750955,56.3184682 C49.2164591,56.3184682 48.6819136,56.8530136 48.6819136,57.51165 C48.6819136,58.1702864 49.2164591,58.7048318 49.8750955,58.7048318 L52.2614591,58.7048318 C52.9200955,58.7048318 53.4546409,58.1702864 53.4546409,57.51165 C53.4546409,56.8530136 52.9200955,56.3184682 52.2614591,56.3184682" id="Fill-1" fill="#000000"></path>
            <path d="M44.1478227,56.3184682 L41.7614591,56.3184682 C41.1028227,56.3184682 40.5682773,56.8530136 40.5682773,57.51165 C40.5682773,58.1702864 41.1028227,58.7048318 41.7614591,58.7048318 L44.1478227,58.7048318 C44.8064591,58.7048318 45.3410045,58.1702864 45.3410045,57.51165 C45.3410045,56.8530136 44.8064591,56.3184682 44.1478227,56.3184682" id="Fill-3" fill="#000000"></path>
            <path d="M36.0341864,56.3184682 L33.6478227,56.3184682 C32.9891864,56.3184682 32.4546409,56.8530136 32.4546409,57.51165 C32.4546409,58.1702864 32.9891864,58.7048318 33.6478227,58.7048318 L36.0341864,58.7048318 C36.6928227,58.7048318 37.2273682,58.1702864 37.2273682,57.51165 C37.2273682,56.8530136 36.6928227,56.3184682 36.0341864,56.3184682" id="Fill-5" fill="#000000"></path>
            <path d="M56.5569136,44.4164318 C57.21555,44.4164318 57.7500955,43.8818864 57.7500955,43.22325 L57.7500955,40.8368864 C57.7500955,40.17825 57.21555,39.6437045 56.5569136,39.6437045 C55.8982773,39.6437045 55.3637318,40.17825 55.3637318,40.8368864 L55.3637318,43.22325 C55.3637318,43.8818864 55.8982773,44.4164318 56.5569136,44.4164318" id="Fill-7" fill="#000000"></path>
            <path d="M56.5569136,52.5300682 C57.21555,52.5300682 57.7500955,51.9955227 57.7500955,51.3368864 L57.7500955,48.9505227 C57.7500955,48.2918864 57.21555,47.7573409 56.5569136,47.7573409 C55.8982773,47.7573409 55.3637318,48.2918864 55.3637318,48.9505227 L55.3637318,51.3368864 C55.3637318,51.9955227 55.8982773,52.5300682 56.5569136,52.5300682" id="Fill-9" fill="#000000"></path>
            <path d="M56.5569136,11.9618864 C57.21555,11.9618864 57.7500955,11.4273409 57.7500955,10.7687045 L57.7500955,8.38234091 C57.7500955,7.72370455 57.21555,7.18915909 56.5569136,7.18915909 C55.8982773,7.18915909 55.3637318,7.72370455 55.3637318,8.38234091 L55.3637318,10.7687045 C55.3637318,11.4273409 55.8982773,11.9618864 56.5569136,11.9618864" id="Fill-11" fill="#000000"></path>
            <path d="M56.5569136,20.0755227 C57.21555,20.0755227 57.7500955,19.5409773 57.7500955,18.8823409 L57.7500955,16.4959773 C57.7500955,15.8373409 57.21555,15.3027955 56.5569136,15.3027955 C55.8982773,15.3027955 55.3637318,15.8373409 55.3637318,16.4959773 L55.3637318,18.8823409 C55.3637318,19.5409773 55.8982773,20.0755227 56.5569136,20.0755227" id="Fill-13" fill="#000000"></path>
            <path d="M56.5569136,31.5300682 C55.8982773,31.5300682 55.3637318,32.0646136 55.3637318,32.72325 L55.3637318,35.1096136 C55.3637318,35.76825 55.8982773,36.3027955 56.5569136,36.3027955 C57.21555,36.3027955 57.7500955,35.76825 57.7500955,35.1096136 L57.7500955,32.72325 C57.7500955,32.0646136 57.21555,31.5300682 56.5569136,31.5300682" id="Fill-15" fill="#000000"></path>
            <path d="M56.5569136,55.8709773 C55.8982773,55.8709773 55.3637318,56.4055227 55.3637318,57.0641591 L55.3637318,57.5118409 C55.3637318,57.8192045 55.48305,58.1160682 55.6968682,58.3384773 L57.3501409,60.0585682 C57.5840045,60.3029318 57.8970955,60.4251136 58.2101864,60.4251136 C58.5080045,60.4251136 58.8058227,60.3143864 59.0377773,60.0919773 C59.5131409,59.63475 59.5274591,58.8797045 59.0711864,58.4043409 L57.7491409,57.03075 C57.7310045,56.3873864 57.20505,55.8709773 56.5569136,55.8709773" id="Fill-17" fill="#000000"></path>
            <path d="M62.9721273,65.9086909 C63.2059909,66.1530545 63.5190818,66.2752364 63.8321727,66.2752364 C64.1299909,66.2752364 64.4278091,66.1654636 64.6597636,65.9421 C65.1351273,65.4858273 65.1494455,64.7307818 64.6931727,64.2554182 L63.0389455,62.5343727 C62.5836273,62.0590091 61.8266727,62.0437364 61.3522636,62.5009636 C60.8769,62.9572364 60.8616273,63.7122818 61.3188545,64.1876455 L62.9721273,65.9086909 Z" id="Fill-19" fill="#000000"></path>
            <path d="M68.5950682,71.7590045 C68.8289318,72.0024136 69.1420227,72.12555 69.4551136,72.12555 C69.7529318,72.12555 70.05075,72.0148227 70.2827045,71.7924136 C70.7580682,71.3361409 70.7723864,70.5810955 70.3161136,70.1057318 L68.6618864,68.3846864 C68.2065682,67.9093227 67.4505682,67.89405 66.9752045,68.3512773 C66.4998409,68.80755 66.4845682,69.5625955 66.9417955,70.0379591 L68.5950682,71.7590045 Z" id="Fill-21" fill="#000000"></path>
            <path d="M74.2169591,77.6083636 C74.4508227,77.8527273 74.7639136,77.9749091 75.0770045,77.9749091 C75.3748227,77.9749091 75.6726409,77.8651364 75.9045955,77.6417727 C76.3799591,77.1855 76.3942773,76.4304545 75.9380045,75.9550909 L74.2837773,74.2340455 C73.8294136,73.7586818 73.0724591,73.7434091 72.5970955,74.2006364 C72.1217318,74.6569091 72.1064591,75.4119545 72.5636864,75.8873182 L74.2169591,77.6083636 Z" id="Fill-23" fill="#000000"></path>
            <g id="Group-27" transform="translate(0.000000, 0.252191)">
                <mask id="mask-2" fill="white">
                    <use xlink:href="#path-1"></use>
                </mask>
                <g id="Clip-26"></g>
                <path d="M78.9999,80.6589 L26.0226273,80.6589 L26.0226273,58.4523545 L27.9202636,58.4523545 C28.5798545,58.4523545 29.1134455,57.9187636 29.1134455,57.2591727 C29.1134455,56.6005364 28.5798545,56.0659909 27.9202636,56.0659909 L26.0226273,56.0659909 L26.0226273,27.6816273 L55.8521727,27.6816273 C56.0516727,27.8314909 56.2874455,27.9374455 56.5566273,27.9374455 C56.8258091,27.9374455 57.0615818,27.8314909 57.2610818,27.6816273 L78.9999,27.6816273 L78.9999,80.6589 Z M56.0488091,3.08871818 L77.3905364,25.2952636 L57.7498091,25.2952636 L57.7498091,24.3579 C57.7498091,23.6983091 57.2162182,23.1647182 56.5566273,23.1647182 C55.8979909,23.1647182 55.3634455,23.6983091 55.3634455,24.3579 L55.3634455,25.2952636 L25.3372636,25.2952636 L15.0797182,14.6215364 L3.99553636,3.08871818 L56.0488091,3.08871818 Z M81.3719455,26.4187636 C81.3662182,26.3089909 81.3442636,26.2020818 81.3070364,26.0980364 C81.2946273,26.0627182 81.2869909,26.0283545 81.2726727,25.9939909 C81.2173091,25.8737182 81.1476273,25.7601273 81.0531273,25.6618091 L57.4176273,1.0689 C57.1923545,0.835036364 56.8811727,0.702354545 56.5566273,0.702354545 L1.19299091,0.702354545 C1.17580909,0.702354545 1.16053636,0.709036364 1.14335455,0.709990909 C1.08608182,0.7119 1.03071818,0.724309091 0.9744,0.734809091 C0.913309091,0.746263636 0.855081818,0.756763636 0.797809091,0.776809091 C0.781581818,0.782536364 0.763445455,0.781581818 0.747218182,0.788263636 C0.710945455,0.803536364 0.683263636,0.829309091 0.6489,0.846490909 C0.593536364,0.875127273 0.541036364,0.903763636 0.490445455,0.940036364 C0.444627273,0.9744 0.404536364,1.01258182 0.364445455,1.05267273 C0.322445455,1.09371818 0.2814,1.13380909 0.246081818,1.18153636 C0.210763636,1.22926364 0.183081818,1.2789 0.154445455,1.33044545 C0.136309091,1.36480909 0.110536364,1.39153636 0.0952636364,1.42780909 C0.0866727273,1.44785455 0.0866727273,1.46885455 0.0790363636,1.48794545 C0.0599454545,1.5414 0.0484909091,1.59580909 0.0360818182,1.65117273 C0.0236727273,1.71321818 0.0122181818,1.7724 0.00935454545,1.83444545 C0.0084,1.85544545 -0.000190909091,1.87453636 -0.000190909091,1.89553636 L-0.000190909091,57.2591727 C-0.000190909091,57.5674909 0.119127273,57.8634 0.332945455,58.0867636 L23.9694,82.6787182 C23.9722636,82.6825364 23.9751273,82.6834909 23.9779909,82.6863545 C24.1956273,82.9068545 24.4953545,83.0452636 24.8294455,83.0452636 L80.1930818,83.0452636 C80.8517182,83.0452636 81.3862636,82.5107182 81.3862636,81.8520818 L81.3862636,26.4884455 C81.3862636,26.4636273 81.3729,26.4435818 81.3719455,26.4187636 Z" id="Fill-25" fill="#000000" mask="url(#mask-2)"></path>
            </g>
        </g>
    </g>
</svg>