<?xml version="1.0" encoding="UTF-8"?>
<svg width="84px" height="84px" viewBox="0 0 84 84" version="1.1" xmlns="http://www.w3.org/2000/svg" xmlns:xlink="http://www.w3.org/1999/xlink">
    <!-- Generator: Sketch 52.2 (67145) - http://www.bohemiancoding.com/sketch -->
    <title>icon--refresh</title>
    <desc>Created with Sketch.</desc>
    <g id="icon--refresh" stroke="none" stroke-width="1" fill="none" fill-rule="evenodd">
        <g id="Group" fill="#0A0B09">
            <path d="M1.4,43.4 C0.616,43.4 0,42.756 0,42 C0,18.816 18.844,0 42,0 C58.744,0 72.548,9.94 81.9,28.756 C82.236,29.456 81.956,30.296 81.256,30.632 C80.584,30.996 79.744,30.716 79.38,30.016 C73.22,17.584 61.712,2.8 42,2.8 C20.384,2.8 2.8,20.384 2.8,42 C2.8,42.756 2.184,43.4 1.4,43.4" id="Fill-7312"></path>
            <path d="M82.6,30.8 L68.6,30.8 C67.816,30.8 67.2,30.156 67.2,29.4 C67.2,28.616 67.816,28 68.6,28 L81.2,28 L81.2,15.4 C81.2,14.616 81.816,14 82.6,14 C83.384,14 84,14.616 84,15.4 L84,29.4 C84,30.156 83.384,30.8 82.6,30.8" id="Fill-7313"></path>
            <path d="M42,84 C25.256,84 11.452,74.032 2.1,55.216 C1.764,54.516 2.044,53.676 2.744,53.34 C3.416,53.004 4.256,53.284 4.62,53.956 C10.78,66.388 22.26,81.2 42,81.2 C63.616,81.2 81.2,63.616 81.2,42 C81.2,41.216 81.816,40.6 82.6,40.6 C83.384,40.6 84,41.216 84,42 C84,65.156 65.156,84 42,84" id="Fill-7314"></path>
            <path d="M1.4,70 C0.616,70 0,69.356 0,68.6 L0,54.6 C0,53.816 0.616,53.2 1.4,53.2 L15.4,53.2 C16.184,53.2 16.8,53.816 16.8,54.6 C16.8,55.356 16.184,56 15.4,56 L2.8,56 L2.8,68.6 C2.8,69.356 2.184,70 1.4,70" id="Fill-7315"></path>
        </g>
    </g>
</svg>