<?xml version="1.0" encoding="UTF-8"?>
<svg width="84px" height="84px" viewBox="0 0 84 84" version="1.1" xmlns="http://www.w3.org/2000/svg" xmlns:xlink="http://www.w3.org/1999/xlink">
    <!-- Generator: Sketch 52.2 (67145) - http://www.bohemiancoding.com/sketch -->
    <title>icon--view-front</title>
    <desc>Created with Sketch.</desc>
    <defs>
        <polygon id="path-1" points="0 0.702545455 81.3864545 0.702545455 81.3864545 83.0454545 0 83.0454545"></polygon>
    </defs>
    <g id="icon--view-front" stroke="none" stroke-width="1" fill="none" fill-rule="evenodd">
        <g id="Group-12">
            <path d="M72.07935,56.3181818 L69.6929864,56.3181818 C69.03435,56.3181818 68.4998045,56.8527273 68.4998045,57.5113636 C68.4998045,58.17 69.03435,58.7045455 69.6929864,58.7045455 L72.07935,58.7045455 C72.7379864,58.7045455 73.2725318,58.17 73.2725318,57.5113636 C73.2725318,56.8527273 72.7379864,56.3181818 72.07935,56.3181818" id="Fill-1" fill="#000000"></path>
            <path d="M63.9657136,56.3181818 L61.57935,56.3181818 C60.9207136,56.3181818 60.3861682,56.8527273 60.3861682,57.5113636 C60.3861682,58.17 60.9207136,58.7045455 61.57935,58.7045455 L63.9657136,58.7045455 C64.62435,58.7045455 65.1588955,58.17 65.1588955,57.5113636 C65.1588955,56.8527273 64.62435,56.3181818 63.9657136,56.3181818" id="Fill-3" fill="#000000"></path>
            <path d="M24.82935,11.9621727 C25.4879864,11.9621727 26.0225318,11.4276273 26.0225318,10.7689909 L26.0225318,8.38262727 C26.0225318,7.72399091 25.4879864,7.18944545 24.82935,7.18944545 C24.1707136,7.18944545 23.6361682,7.72399091 23.6361682,8.38262727 L23.6361682,10.7689909 C23.6361682,11.4276273 24.1707136,11.9621727 24.82935,11.9621727" id="Fill-5" fill="#000000"></path>
            <path d="M24.82935,20.0758091 C25.4879864,20.0758091 26.0225318,19.5412636 26.0225318,18.8826273 L26.0225318,16.4962636 C26.0225318,15.8376273 25.4879864,15.3030818 24.82935,15.3030818 C24.1707136,15.3030818 23.6361682,15.8376273 23.6361682,16.4962636 L23.6361682,18.8826273 C23.6361682,19.5412636 24.1707136,20.0758091 24.82935,20.0758091" id="Fill-7" fill="#000000"></path>
            <g id="Group-11" transform="translate(0.000000, 0.252191)">
                <mask id="mask-2" fill="white">
                    <use xlink:href="#path-1"></use>
                </mask>
                <g id="Clip-10"></g>
                <path d="M57.75,26.9691545 L79.0000909,4.85901818 L79.0000909,56.0656091 L77.8069091,56.0656091 C77.1473182,56.0656091 76.6137273,56.6001545 76.6137273,57.2587909 C76.6137273,57.7942909 76.9726364,58.2314727 77.4585,58.3822909 L57.75,78.8887909 L57.75,26.9691545 Z M25.3374545,3.08833636 L77.3907273,3.08833636 L66.3065455,14.6221091 L56.049,25.2958364 L26.0228182,25.2958364 L26.0228182,24.3575182 C26.0228182,23.6988818 25.4882727,23.1643364 24.8296364,23.1643364 C24.1700455,23.1643364 23.6364545,23.6988818 23.6364545,24.3575182 L23.6364545,25.2958364 L3.99477273,25.2958364 L25.3374545,3.08833636 Z M81.3864545,57.2587909 L81.3864545,1.89515455 C81.3864545,1.87415455 81.3778636,1.85506364 81.3769091,1.83406364 C81.3740455,1.77297273 81.3616364,1.71283636 81.3501818,1.65174545 C81.3377727,1.59542727 81.3263182,1.54101818 81.3072273,1.48756364 C81.2995909,1.46847273 81.2995909,1.44747273 81.291,1.42838182 C81.2757273,1.39210909 81.2499545,1.36442727 81.2318182,1.33006364 C81.2031818,1.27851818 81.1755,1.22888182 81.1401818,1.18210909 C81.1048636,1.13438182 81.0638182,1.09333636 81.0218182,1.05229091 C80.9817273,1.0122 80.9416364,0.974018182 80.8958182,0.939654545 C80.8452273,0.903381818 80.7927273,0.8757 80.7364091,0.846109091 C80.703,0.828927273 80.6753182,0.803154545 80.6390455,0.788836364 C80.6228182,0.782154545 80.6046818,0.782154545 80.5884545,0.777381818 C80.5311818,0.756381818 80.4729545,0.745881818 80.4118636,0.735381818 C80.3555455,0.723927273 80.3001818,0.712472727 80.2429091,0.709609091 C80.2257273,0.708654545 80.2095,0.701972727 80.1932727,0.701972727 L24.8296364,0.701972727 C24.5041364,0.701972727 24.1939091,0.834654545 23.9686364,1.06851818 L0.333136364,25.6614273 C0.238636364,25.7607 0.168954545,25.8742909 0.113590909,25.9945636 C0.0983181818,26.0279727 0.0916363636,26.0632909 0.0792272727,26.0976545 C0.042,26.2017 0.021,26.3076545 0.0143181818,26.4174273 C0.0133636364,26.4422455 0,26.4632455 0,26.4890182 L0,81.8526545 C0,82.5112909 0.534545455,83.0458364 1.19318182,83.0458364 L56.5568182,83.0458364 C56.8909091,83.0458364 57.1906364,82.9074273 57.4073182,82.6859727 C57.4111364,82.6831091 57.414,82.6821545 57.4168636,82.6792909 L81.0533182,58.0863818 C81.1067727,58.0310182 81.1344545,57.9594273 81.1755,57.8964273 C81.2155909,57.8343818 81.2661818,57.7818818 81.2948182,57.7131545 C81.354,57.5699727 81.3864545,57.4162909 81.3864545,57.2587909 Z" id="Fill-9" fill="#000000" mask="url(#mask-2)"></path>
            </g>
        </g>
    </g>
</svg>