<?xml version="1.0" encoding="UTF-8"?>
<svg width="84px" height="84px" viewBox="0 0 84 84" version="1.1" xmlns="http://www.w3.org/2000/svg" xmlns:xlink="http://www.w3.org/1999/xlink">
    <!-- Generator: Sketch 52.2 (67145) - http://www.bohemiancoding.com/sketch -->
    <title>icon--feedstart</title>
    <desc>Created with Sketch.</desc>
    <g id="icon--cyclestart" stroke="none" stroke-width="1" fill="none" fill-rule="evenodd">
        <g id="Group-3" fill="#000000">
            <path d="M32.0891354,40.7093491 L53.2011354,54.7849491 L53.2011354,28.9801491 L32.0891354,40.7093491 L32.0891354,40.7093491 Z M54.6011354,58.8001491 C54.3295354,58.8001491 54.0607354,58.7217491 53.8255354,58.5649491 L28.6255354,41.7649491 C28.2167354,41.4933491 27.9815354,41.0313491 28.0011354,40.5441491 C28.0235354,40.0569491 28.2923354,39.6145491 28.7207354,39.3765491 L53.9207354,25.3765491 C54.3575354,25.1329491 54.8867354,25.1441491 55.3123354,25.3933491 C55.7379354,25.6453491 56.0011354,26.1045491 56.0011354,26.6001491 L56.0011354,57.4001491 C56.0011354,57.9181491 55.7155354,58.3913491 55.2619354,58.6349491 C55.0547354,58.7469491 54.8279354,58.8001491 54.6011354,58.8001491 L54.6011354,58.8001491 Z" id="Fill-544"></path>
            <path d="M29.4,58.8 C28.6272,58.8 28,58.1728 28,57.4 L28,26.6 C28,25.8272 28.6272,25.2 29.4,25.2 C30.1728,25.2 30.8,25.8272 30.8,26.6 L30.8,57.4 C30.8,58.1728 30.1728,58.8 29.4,58.8" id="Fill-545"></path>
            <path d="M19.054,2.8 C10.0912,2.8 2.8,10.0912 2.8,19.054 L2.8,64.946 C2.8,73.9088 10.0912,81.2 19.054,81.2 L64.946,81.2 C73.9088,81.2 81.2,73.9088 81.2,64.946 L81.2,19.054 C81.2,10.0912 73.9088,2.8 64.946,2.8 L19.054,2.8 L19.054,2.8 Z M64.946,84 L19.054,84 C8.5484,84 0,75.4516 0,64.946 L0,19.054 C0,8.5484 8.5484,0 19.054,0 L64.946,0 C75.4516,0 84,8.5484 84,19.054 L84,64.946 C84,75.4516 75.4516,84 64.946,84 L64.946,84 Z" id="Fill-546"></path>
        </g>
    </g>
</svg>
