<?xml version="1.0" encoding="utf-8"?>
<!-- Generator: Adobe Illustrator 22.1.0, SVG Export Plug-In . SVG Version: 6.00 Build 0)  -->
<svg version="1.1" id="Layer_1" xmlns="http://www.w3.org/2000/svg" xmlns:xlink="http://www.w3.org/1999/xlink" x="0px" y="0px"
	 viewBox="0 0 130.8 423.7" style="enable-background:new 0 0 130.8 423.7;" xml:space="preserve">
<style type="text/css">
	.st0{fill:none;stroke:#FFFFFF;stroke-width:2;stroke-miterlimit:10;}
	.st1{fill:url(#SVGID_5_);}
	.st2{fill:#FFFFFF;}
	.st3{fill:url(#SVGID_6_);}
	.st4{fill:url(#SVGID_7_);}
	.st5{fill:url(#SVGID_8_);}
</style>
<g>
	<radialGradient id="SVGID_2_" cx="65.1398" cy="211.8631" r="147.4521" gradientUnits="userSpaceOnUse">
		<stop  offset="0.3462" style="stop-color:#1E9CD7"/>
		<stop  offset="1" style="stop-color:#0083D4"/>
	</radialGradient>
	<path style="fill:url(#SVGID_2_);" d="M65.1,410.1c-14,0-28.1-1.5-41.8-4.4l0,0l-1-0.2C15.3,404,10,398,9.5,390.8
		C8.3,375,1.9,296,1.8,295.3l-0.1-0.8C0,279.2,0,142.8,1.7,129l0.1-0.6c0.1-0.7,6.5-79.7,7.7-95.5c0.5-7.2,5.8-13.2,12.9-14.7l1-0.2
		l0,0c13.7-2.9,27.7-4.4,41.8-4.4s28.1,1.5,41.8,4.4l0,0l1,0.2c7.1,1.4,12.4,7.4,12.9,14.6c1.3,15.8,7.6,94.8,7.7,95.5l0.1,0.7
		c1.7,14.6,1.7,152.2,0,165.6l-0.1,0.5c-0.1,0.7-6.5,79.7-7.7,95.5c-0.5,7.2-5.8,13.2-12.9,14.7l-1,0.2l0,0
		C93.2,408.6,79.2,410.1,65.1,410.1z"/>
	<path class="st2" d="M65.1,14.6c13.6,0,27.3,1.4,40.6,4.2l0,0.1l2,0.4c6.6,1.3,11.6,7,12.1,13.8c2.3,28.5,7.6,94.9,7.7,95.6
		l0.1,0.6c1.7,13.9,1.7,150.6,0,165.2l-0.1,0.7c-0.1,0.7-5.5,67.1-7.7,95.6c-0.5,6.8-5.4,12.4-12.1,13.7l-2,0.4l0,0
		c-13.3,2.8-26.9,4.2-40.6,4.2c-13.6,0-27.3-1.4-40.6-4.2l0-0.1l-2-0.4c-6.6-1.3-11.6-7-12.1-13.8c-2.3-28.5-7.6-94.9-7.7-95.6
		l-0.1-0.7C1,280,1,144.7,2.7,129.5l0.1-0.9c0.1-0.7,5.4-67,7.7-95.6C11,26.2,16,20.6,22.6,19.3l2-0.4l0,0
		C37.8,16,51.5,14.6,65.1,14.6 M65.1,12.6c-14.7,0-29.1,1.6-42.9,4.7l0,0c-7.4,1.5-13.1,7.8-13.7,15.6c0,0-7.6,94.7-7.7,95.4h0
		C-1,138.4-1,285.3,0.8,295.5h0c0.1,0.7,7.7,95.4,7.7,95.4c0.5,7.7,6.2,14.1,13.7,15.6l0,0c13.8,3,28.2,4.7,42.9,4.7
		c14.7,0,29.1-1.6,42.9-4.7l0,0c7.4-1.5,13.1-7.8,13.7-15.6c0,0,7.6-94.7,7.7-95.4h0c1.8-10.1,1.8-157.1,0-167.2h0
		c-0.1-0.7-7.7-95.4-7.7-95.4c-0.5-7.7-6.2-14.1-13.7-15.6l0,0C94.2,14.2,79.9,12.6,65.1,12.6L65.1,12.6z"/>
</g>
<g>
	<path class="st2" d="M65.1,44.6c0.4,0,1.3,0.1,1.8,1.1L79.8,68c0.6,1,0.2,1.8,0,2.1c-0.2,0.3-0.7,1.1-1.8,1.1H52.3
		c-1.1,0-1.6-0.7-1.8-1.1c-0.2-0.3-0.6-1.2,0-2.1l12.9-22.3C63.9,44.7,64.8,44.6,65.1,44.6 M65.1,42.6c-1.4,0-2.8,0.7-3.6,2.1
		L48.7,67c-1.6,2.7,0.4,6.2,3.6,6.2H78c3.2,0,5.1-3.4,3.6-6.2L68.7,44.7C67.9,43.3,66.5,42.6,65.1,42.6L65.1,42.6z"/>
</g>
<g>
	<path class="st2" d="M78,352.6c1.1,0,1.6,0.7,1.8,1.1s0.6,1.2,0,2.1L67,378c-0.6,1-1.5,1.1-1.8,1.1s-1.3-0.1-1.8-1.1l-12.9-22.3
		c-0.6-1-0.2-1.8,0-2.1c0.2-0.3,0.7-1.1,1.8-1.1H78 M78,350.6H52.3c-3.2,0-5.1,3.4-3.6,6.2L61.6,379c0.8,1.4,2.2,2.1,3.6,2.1
		c1.4,0,2.8-0.7,3.6-2.1l12.9-22.3C83.2,354,81.2,350.6,78,350.6L78,350.6z"/>
</g>
</svg>
