<?xml version="1.0" encoding="utf-8"?>
<!-- Generator: Adobe Illustrator 22.1.0, SVG Export Plug-In . SVG Version: 6.00 Build 0)  -->
<svg version="1.1" id="Layer_1" xmlns="http://www.w3.org/2000/svg" xmlns:xlink="http://www.w3.org/1999/xlink" x="0px" y="0px"
	 viewBox="0 0 423.7 424.6" style="enable-background:new 0 0 423.7 424.6;" xml:space="preserve">
<style type="text/css">
	.st0{fill:none;stroke:#FFFFFF;stroke-width:2;stroke-miterlimit:10;}
	.st1{fill:url(#SVGID_5_);}
	.st2{fill:#FFFFFF;}
	.st3{fill:#FFA140;}
	.st4{fill:#FF902C;}
	.st5{fill:#FF4040;}
</style>
<g id="keypad-image_x5F__x5F_button">
	<circle class="st5" cx="211.9" cy="211.9" r="211.9"/>
</g>
<g id="keypad-image_x5F__x5F_button--inner">
	<path class="st3" d="M406.4,168.9L406.4,168.9c-1.5-7.4-7.8-13.1-15.6-13.7l-93.4-7.5c-10.3-0.8-19.5-9.4-21.3-19.5h0
		c-0.1-0.7-7.7-95.4-7.7-95.4c-0.5-7.7-6.2-14.1-13.7-15.6l0,0c-13.8-3-28.2-4.7-42.9-4.7s-29.1,1.6-42.9,4.7l0,0
		c-7.4,1.5-13.1,7.8-13.7,15.6c0,0-7.6,94.7-7.7,95.4h0c-1.8,10.1-11,18.7-21.3,19.5l-93.4,7.5c-7.7,0.5-14.1,6.2-15.6,13.7l0,0
		c-3,13.8-4.7,28.2-4.7,42.9s1.6,29.1,4.7,42.9l0,0c1.5,7.4,7.8,13.1,15.6,13.7l93.4,7.5c10.3,0.8,19.5,9.4,21.3,19.5h0
		c0.1,0.7,7.7,95.4,7.7,95.4c0.5,7.7,6.2,14.1,13.7,15.6l0,0c13.8,3,28.2,4.7,42.9,4.7s29.1-1.6,42.9-4.7l0,0
		c7.4-1.5,13.1-7.8,13.7-15.6c0,0,7.6-94.7,7.7-95.4h0c1.8-10.1,11-18.7,21.3-19.5l93.4-7.5c7.7-0.5,14.1-6.2,15.6-13.7l0,0
		c3-13.8,4.7-28.2,4.7-42.9S409.5,182.8,406.4,168.9z"/>
</g>
<g id="keypad-image_x5F__x5F_arrow_3_">
	<path class="st4" d="M208.3,44.7L195.4,67c-1.6,2.7,0.4,6.2,3.6,6.2h25.8c3.2,0,5.1-3.4,3.6-6.2l-12.9-22.3
		C213.8,41.9,209.9,41.9,208.3,44.7z"/>
</g>
<g id="keypad-image_x5F__x5F_arrow_2_">
	<path class="st4" d="M215.4,379l12.9-22.3c1.6-2.7-0.4-6.2-3.6-6.2H199c-3.2,0-5.1,3.4-3.6,6.2l12.9,22.3
		C209.9,381.8,213.8,381.8,215.4,379z"/>
</g>
<g id="keypad-image_x5F__x5F_arrow_1_">
	<path class="st4" d="M379,208.3l-22.3-12.9c-2.7-1.6-6.2,0.4-6.2,3.6v25.8c0,3.2,3.4,5.1,6.2,3.6l22.3-12.9
		C381.8,213.8,381.8,209.9,379,208.3z"/>
</g>
<g id="keypad-image_x5F__x5F_arrow">
	<path class="st4" d="M44.7,215.4L67,228.3c2.7,1.6,6.2-0.4,6.2-3.6V199c0-3.2-3.4-5.1-6.2-3.6l-22.3,12.9
		C41.9,209.9,41.9,213.8,44.7,215.4z"/>
</g>
</svg>
