<?xml version="1.0" encoding="utf-8"?>
<!-- Generator: Adobe Illustrator 22.1.0, SVG Export Plug-In . SVG Version: 6.00 Build 0)  -->
<svg version="1.1" id="Layer_1" xmlns="http://www.w3.org/2000/svg" xmlns:xlink="http://www.w3.org/1999/xlink" x="0px" y="0px"
	 viewBox="0 0 130.8 423.7" style="enable-background:new 0 0 130.8 423.7;" xml:space="preserve">
<style type="text/css">
	.st0{fill:none;stroke:#FFFFFF;stroke-width:2;stroke-miterlimit:10;}
	.st1{fill:url(#SVGID_5_);}
	.st2{fill:#FFFFFF;}
	.st3{fill:#FFA140;}
	.st4{fill:#FF902C;}
	.st5{fill:#FF4040;}
</style>
<g id="keypad-image_x5F__x5F_button_1_">
	<path class="st3" d="M129.5,128.3L129.5,128.3c-0.1-0.7-7.7-95.4-7.7-95.4c-0.5-7.7-6.2-14.1-13.7-15.6l0,0
		c-13.8-3-28.2-4.7-42.9-4.7S36,14.2,22.2,17.3l0,0c-7.4,1.5-13.1,7.8-13.7,15.6c0,0-7.6,94.7-7.7,95.4h0
		C-1,138.4-1,285.3,0.8,295.5h0c0.1,0.7,7.7,95.4,7.7,95.4c0.5,7.7,6.2,14.1,13.7,15.6l0,0c13.8,3,28.2,4.7,42.9,4.7
		s29.1-1.6,42.9-4.7l0,0c7.4-1.5,13.1-7.8,13.7-15.6c0,0,7.6-94.7,7.7-95.4h0C131.3,285.3,131.3,138.4,129.5,128.3z"/>
</g>
<g id="keypad-image_x5F__x5F_arrow_4_">
	<path class="st4" d="M61.6,44.7L48.7,67c-1.6,2.7,0.4,6.2,3.6,6.2H78c3.2,0,5.1-3.4,3.6-6.2L68.7,44.7
		C67.1,41.9,63.2,41.9,61.6,44.7z"/>
</g>
<g id="keypad-image_x5F__x5F_arrow_5_">
	<path class="st4" d="M68.7,379l12.9-22.3c1.6-2.7-0.4-6.2-3.6-6.2H52.3c-3.2,0-5.1,3.4-3.6,6.2L61.6,379
		C63.2,381.8,67.1,381.8,68.7,379z"/>
</g>
</svg>
