<?xml version="1.0" encoding="UTF-8"?>
<svg width="84px" height="84px" viewBox="0 0 84 84" version="1.1" xmlns="http://www.w3.org/2000/svg" xmlns:xlink="http://www.w3.org/1999/xlink">
    <!-- Generator: Sketch 52.2 (67145) - http://www.bohemiancoding.com/sketch -->
    <title>logo--grbl</title>
    <desc>Created with Sketch.</desc>
    <g id="logo--grbl" stroke="none" stroke-width="1" fill="none" fill-rule="evenodd">
        <g id="Group-13" transform="translate(0.000000, 16.000000)" fill="#000000">
            <path d="M75.2021895,26.0380945 L75.2021895,3.01138309 C75.2021895,1.41053477 73.904305,0.112762953 72.3034566,0.112762953 C70.7027211,0.112762953 69.4048365,1.41053477 69.4048365,3.01138309 L69.4048365,26.0380945 C69.4048365,32.4416005 74.5959238,37.632575 80.9994298,37.632575 L83.8980499,34.7339549 L80.9994298,31.8353348 C77.7977332,31.8353348 75.2021895,29.2397911 75.2021895,26.0380945" id="Fill-1"></path>
            <path d="M26.0066142,26.0380945 L26.0066142,34.7339549 C26.0066142,36.3348032 27.304386,37.632575 28.9052344,37.632575 C30.5060827,37.632575 31.8038545,36.3348032 31.8038545,34.7339549 L31.8038545,26.0380945 C31.8038545,22.8363979 34.3993981,20.2408542 37.6012075,20.2408542 L41.9896156,20.2408542 L41.9896156,14.4435012 L37.6012075,14.4435012 C31.1977015,14.4435012 26.0066142,19.6345885 26.0066142,26.0380945" id="Fill-3"></path>
            <path d="M54.9928832,14.4435576 L50.6043624,14.4435576 L50.6043624,20.2409106 L54.9928832,20.2409106 C57.3376671,20.2409106 59.4515356,21.6532381 60.3488134,23.8195361 C61.2460913,25.9858341 60.7499839,28.4792247 59.0919705,30.1371254 C57.433957,31.7951388 54.9405664,32.2912462 52.7743812,31.3939683 C50.6080832,30.4966905 49.195643,28.382822 49.195643,26.0381509 L49.195643,3.01132671 L46.2970228,0.112706577 L43.3984027,3.01132671 L43.3984027,26.0381509 C43.3984027,30.7276059 46.223396,34.9553428 50.5557664,36.7498985 C54.8882497,38.5443415 59.8750309,37.5522395 63.1910577,34.2362126 C66.5070846,30.9201858 67.4992993,25.9335173 65.7047436,21.6009213 C63.9103007,17.2685509 59.682451,14.4435576 54.9928832,14.4435576" id="Fill-5"></path>
            <path d="M11.5946609,31.8353348 C9.24987705,31.8353348 7.13600859,30.4228945 6.23873074,28.2567093 C5.34145289,26.0904113 5.83756027,23.5970207 7.49557369,21.9390072 C9.15358711,20.2809938 11.6469777,19.7848864 13.813163,20.6821643 C15.9794609,21.5794421 17.3919012,23.6933106 17.3919012,26.0380945 L17.3919012,40.3689455 C17.3919012,43.5706421 14.7963576,46.1661858 11.5946609,46.1661858 C9.99437638,46.166975 8.69761933,47.4645213 8.69761933,49.0648059 C8.69761933,50.6649777 9.99437638,51.962524 11.5946609,51.963426 C17.9980542,51.963426 23.1891415,46.7724515 23.1891415,40.3689455 L23.1891415,26.0380945 C23.1891415,21.3485267 20.3642609,17.1207898 16.0317777,15.3262341 C11.6992945,13.5317911 6.71251329,14.5238932 3.39648644,17.83992 C0.0804595973,21.1559468 -0.911755168,26.1427281 0.882800537,30.4752113 C2.67735624,34.8076945 6.90509315,37.632575 11.5946609,37.632575 L14.4932811,37.632575 L17.3919012,34.7339549 L14.4932811,31.8353348 L11.5946609,31.8353348" id="Fill-8"></path>
        </g>
    </g>
</svg>