<?xml version="1.0" encoding="utf-8"?>
<!-- Generator: Adobe Illustrator 22.1.0, SVG Export Plug-In . SVG Version: 6.00 Build 0)  -->
<svg version="1.1" id="Layer_1" xmlns="http://www.w3.org/2000/svg" xmlns:xlink="http://www.w3.org/1999/xlink" x="0px" y="0px"
	 viewBox="0 0 250.8 314.3" style="enable-background:new 0 0 250.8 314.3;" xml:space="preserve">
<style type="text/css">
	.st0{fill:#FFFFFF;}
</style>
<path d="M106.4,98.4c-57.5-2.2-105,43.9-105,100.9c0,7.1,0.7,14.2,2.2,21c0.4,1.7,2.1,2.8,3.8,2.4l27-6.6c1.6-0.4,2.6-2,2.3-3.6
	c-0.9-4.3-1.3-8.7-1.3-13.2c0-38,31.8-68.7,70.2-66.9c34.3,1.6,62.1,29.4,63.7,63.7c1.8,38.4-28.9,70.2-66.9,70.2
	c-2.7,0-5.4-0.2-8-0.5l3.4-11.9c0.6-2.3-1.4-4.4-3.7-3.8l-58.3,14.7c-2.5,0.6-3.3,3.7-1.6,5.5l41.9,43.1c1.7,1.7,4.5,1,5.2-1.3
	l3.8-13.3c5.7,1,11.5,1.5,17.4,1.5c57,0,103.1-47.5,100.9-105C201.3,142.9,158.8,100.4,106.4,98.4z"/>
<rect x="92.4" y="68.2" width="18" height="142.1"/>
<rect x="71" y="23.3" width="61.8" height="44.9"/>
<g>
	<g>
		<path d="M196.8,104.2L196.8,104.2l-3.5,6.1c-0.4,0.7-0.2,1.6,0.5,2l14.7,8.5c0.7,0.4,1.6,0.2,2-0.5l3.5-6.1l0,0
			c8.8-2.8,16.7-8.3,22.5-16.1c-5.4-4.5-11.3-8.6-17.6-12.3c-6.3-3.6-12.8-6.7-19.5-9.1C195.5,85.6,194.7,95.2,196.8,104.2z"/>
	</g>
	<g>
		<path d="M178.9,125.7L178.9,125.7l-4.9,5.1c-0.5,0.6-0.5,1.5,0,2l12.2,11.8c0.6,0.5,1.5,0.5,2,0l4.9-5.1l0,0
			c9.2-0.5,18.3-3.9,25.8-10.1c-4.2-5.7-8.9-11.1-14.1-16.2c-5.2-5.1-10.8-9.6-16.7-13.6C182.2,107.3,179.2,116.5,178.9,125.7z"/>
	</g>
	<g>
		<path d="M211.4,80L211.4,80l-1.9,6.8c-0.2,0.8,0.2,1.5,1,1.8l16.4,4.5c0.8,0.2,1.5-0.2,1.8-1l1.9-6.8l0,0
			c7.8-4.9,14.1-12.2,17.7-21.2c-6.4-3-13.1-5.5-20.2-7.4c-7-1.9-14.1-3.2-21.1-3.9C205.4,62.3,207.2,71.8,211.4,80z"/>
	</g>
	<g>
		<path d="M216.4,55.2L216.4,55.2l-0.5,7.1c-0.1,0.8,0.5,1.5,1.3,1.5l17,1.1c0.8,0.1,1.5-0.5,1.5-1.3l0.5-7.1l0,0
			c6.7-6.4,11.4-14.8,13.1-24.4c-6.9-1.6-14-2.7-21.2-3.2c-7.3-0.5-14.5-0.3-21.5,0.4C207.1,39.1,210.7,48,216.4,55.2z"/>
	</g>
	<g>
		<path d="M219.5,27L219.5,27l0,7.1c0,0.8,0.6,1.4,1.4,1.4h17c0.8,0,1.4-0.6,1.4-1.4V27h0c6.2-6.8,10.4-15.5,11.5-25.2
			c-7-1.2-14.1-1.8-21.4-1.8c-7.3,0-14.5,0.6-21.4,1.8C209.1,11.5,213.2,20.2,219.5,27z"/>
	</g>
	<path d="M192.6,153.6c3.4-4.6,2.7-11-1.7-14.7l0,0l-13.7-10.3l0,0c-4.7-3.1-11.1-2.1-14.6,2.5c-3,4-2.8,9.3,0.1,13.1l-19,34
		c-0.6,1-0.3,2.2,0.6,2.9l5,3.8c0.9,0.7,2.2,0.6,3-0.2l27.3-27.7C184.1,159,189.6,157.7,192.6,153.6z"/>
</g>
</svg>
